<svg xmlns="http://www.w3.org/2000/svg" width="20" height="20" viewBox="0 0 20 20">
  <path fill="currentColor" d="M18.5 10a.5.5 0 0 0 0-1H17V8h1.5a.5.5 0 0 0 0-1H17V5.5a.504.504 0 0 0-.146-.354l-2-2A.5.5 0 0 0 14.5 3H13V1.5a.5.5 0 0 0-1 0V3h-1V1.5a.5.5 0 0 0-1 0V3H9V1.5a.5.5 0 0 0-1 0V3H7V1.5a.5.5 0 0 0-1 0V3H4.5a.504.504 0 0 0-.354.146l-2 2A.5.5 0 0 0 2 5.5V7H.5a.5.5 0 0 0 0 1H2v1H.5a.5.5 0 0 0 0 1H2v1H.5a.5.5 0 0 0 0 1H2v1H.5a.5.5 0 0 0 0 1H2v1.5c0 .133.053.26.146.354l2 2A.5.5 0 0 0 4.5 18H6v1.5a.5.5 0 0 0 1 0V18h1v1.5a.5.5 0 0 0 1 0V18h1v1.5a.5.5 0 0 0 1 0V18h1v1.5a.5.5 0 0 0 1 0V18h1.5c.133 0 .26-.053.354-.146l2-2A.5.5 0 0 0 17 15.5V14h1.5a.5.5 0 0 0 0-1H17v-1h1.5a.5.5 0 0 0 0-1H17v-1h1.5zM16 15.293 14.293 17H4.707L3 15.293V5.707L4.707 4h9.586L16 5.707v9.586z"/>
  <path fill="currentColor" d="M5.5 16c-.827 0-1.5-.673-1.5-1.5S4.673 13 5.5 13s1.5.673 1.5 1.5S6.327 16 5.5 16zm0-2a.5.5 0 1 0 0 1 .5.5 0 0 0 0-1z"/>
</svg>
