<?xml version="1.0" encoding="UTF-8"?>
<svg id="a"
  xmlns="http://www.w3.org/2000/svg" viewBox="0 0 20 20">
  <path fill="currentColor" d="M15.98,9.15l.39-2.16s.09,.01,.13,.01c1.93,0,3.5-1.57,3.5-3.5s-1.57-3.5-3.5-3.5c-1.68,0-3.08,1.19-3.42,2.77l-7.14,1.65c-.27-1.38-1.49-2.42-2.94-2.42C1.35,2,0,3.35,0,5s1.35,3,3,3c.08,0,.15,0,.22-.01l.57,6.27c-1.05,.47-1.79,1.52-1.79,2.74,0,1.65,1.35,3,3,3s3-1.35,3-3c0-.23-.03-.45-.08-.67l1.25-.25c.68,2.3,2.82,3.98,5.33,3.98,3.06,0,5.56-2.5,5.56-5.56,0-2.55-1.73-4.71-4.08-5.35Zm.52-8.15c1.38,0,2.5,1.12,2.5,2.5s-1.12,2.5-2.5,2.5-2.5-1.12-2.5-2.5,1.12-2.5,2.5-2.5ZM5.96,5.45l7.06-1.63c.12,1.4,1.08,2.57,2.37,2.99l-.39,2.16c-.17-.02-.33-.03-.5-.03-1.54,0-2.94,.63-3.95,1.65L5.6,6.49c.18-.32,.31-.67,.36-1.04Zm-2.83,1.54s-.09,.01-.13,.01c-1.1,0-2-.9-2-2s.9-2,2-2c.98,0,1.8,.71,1.97,1.65,.02,.11,.03,.23,.03,.35,0,.25-.04,.48-.13,.7-.01,.05-.03,.09-.06,.14-.14,.31-.36,.58-.64,.78-.02,.02-.04,.03-.06,.05-.29,.19-.62,.3-.98,.32Zm1.87,12.01c-1.1,0-2-.9-2-2,0-.69,.36-1.3,.89-1.67,.29-.19,.62-.3,.98-.32,.04-.01,.09-.01,.13-.01,.56,0,1.07,.23,1.42,.61,.26,.25,.44,.56,.52,.91,.04,.15,.06,.31,.06,.48,0,1.1-.9,2-2,2Zm3.94-4.5c0,.2,.01,.4,.03,.6l-1.44,.28c-.54-.83-1.47-1.38-2.53-1.38-.08,0-.15,0-.22,.01l-.57-6.27c.27-.12,.52-.28,.74-.47l4.96,4.1c-.61,.89-.97,1.97-.97,3.13Zm5.56,4.44c-1.98,0-3.65-1.29-4.23-3.08-.1-.32-.17-.65-.19-.99-.01-.12-.02-.24-.02-.37,0-.89,.27-1.73,.72-2.42,.18-.28,.4-.54,.64-.78,.79-.76,1.89-1.24,3.08-1.24,.1,0,.2,0,.3,.01,.34,.02,.67,.08,.98,.18,1.83,.55,3.16,2.25,3.16,4.25,0,2.45-1.99,4.44-4.44,4.44Z"/>
</svg>
