<svg xmlns="http://www.w3.org/2000/svg" width="24" height="24" viewBox="0 0 24 24">
  <path fill="currentColor" fill-rule="evenodd" d="M20.713 4.8h-2.978v-3c0-.992-.801-1.8-1.787-1.8H7.015a.598.598 0 0 0-.422.175l-4.17 4.2a.602.602 0 0 0-.173.425v12.6c0 .992.802 1.8 1.787 1.8h2.978v3c0 .992.801 1.8 1.786 1.8h11.912c.985 0 1.787-.808 1.787-1.8V6.6c0-.992-.802-1.8-1.787-1.8ZM7.015 1.448V4.2c0 .331-.267.6-.596.6H3.688l3.327-3.352ZM3.44 17.4c0 .331.267.6.596.6h2.978V9.6c0-.16.062-.312.174-.425l4.169-4.2a.598.598 0 0 1 .421-.175h4.765v-3c0-.331-.267-.6-.596-.6H8.206v3c0 .992-.802 1.8-1.787 1.8H3.441v11.4Zm8.34-11.152V9c0 .331-.266.6-.595.6H8.452l3.327-3.352ZM20.713 22.8a.598.598 0 0 0 .596-.6V6.6c0-.331-.267-.6-.596-.6h-7.742v3c0 .992-.802 1.8-1.787 1.8H8.206v11.4c0 .331.267.6.595.6h11.912Z" />
</svg>
