<svg xmlns="http://www.w3.org/2000/svg" width="24" height="24" viewBox="0 0 24 24">
  <path fill="currentColor" fill-rule="evenodd" d="M20.485 3.515A11.92 11.92 0 0 0 12 0a11.92 11.92 0 0 0-8.485 3.515A11.92 11.92 0 0 0 0 12a11.92 11.92 0 0 0 3.515 8.485A11.92 11.92 0 0 0 12 24a11.92 11.92 0 0 0 8.485-3.515A11.92 11.92 0 0 0 24 12a11.92 11.92 0 0 0-3.515-8.485ZM12 1.2c3.038 0 5.788 1.261 7.752 3.288L3.462 18.606A10.745 10.745 0 0 1 1.2 12C1.2 6.044 6.044 1.2 12 1.2ZM4.248 19.512A10.768 10.768 0 0 0 12 22.8c5.956 0 10.8-4.844 10.8-10.8 0-2.486-.845-4.778-2.262-6.606L4.248 19.512Z" />
</svg>
