<svg xmlns="http://www.w3.org/2000/svg" width="24" height="24" viewBox="0 0 24 24">
  <path fill="currentColor" d="M12 21.475a.632.632 0 0 1-.632-.632V19.58a.632.632 0 0 1 1.264 0v1.263a.632.632 0 0 1-.632.632Zm0-3.79a.632.632 0 0 1-.632-.631v-2.527c0-.349.283-.632.632-.632a4.426 4.426 0 0 0 4.421-4.42A4.426 4.426 0 0 0 12 5.052a4.426 4.426 0 0 0-4.421 4.421.632.632 0 0 1-1.263 0A5.691 5.691 0 0 1 12 3.79a5.691 5.691 0 0 1 5.684 5.684 5.691 5.691 0 0 1-5.052 5.65v1.93a.632.632 0 0 1-.632.631ZM24 12c0 3.206-1.247 6.22-3.514 8.487A11.923 11.923 0 0 1 12 24c-3.206 0-6.22-1.247-8.486-3.514A11.928 11.928 0 0 1 0 11.999c0-3.204 1.247-6.218 3.514-8.485A11.924 11.924 0 0 1 12 0c3.206 0 6.22 1.248 8.486 3.514A11.92 11.92 0 0 1 24 12Zm-1.263.002C22.737 6.08 17.92 1.263 12 1.263S1.263 6.08 1.263 12.001c0 5.92 4.817 10.737 10.737 10.737s10.737-4.817 10.737-10.737v.001Z"/>
</svg>
