<svg xmlns="http://www.w3.org/2000/svg" width="24" height="24" viewBox="0 0 24 24">
  <g fill="currentColor">
    <path d="M12 14.4a.602.602 0 0 1-.233-.047l-11.4-4.8a.601.601 0 0 1 0-1.106l11.4-4.8a.602.602 0 0 1 .466 0l11.4 4.8a.601.601 0 0 1 0 1.106l-11.4 4.8A.602.602 0 0 1 12 14.4ZM2.146 9 12 13.148 21.854 9 12 4.852 2.146 9Z"/>
    <path d="M12 18a.602.602 0 0 1-.233-.047l-11.4-4.8a.6.6 0 0 1 .466-1.106L12 16.748l11.167-4.701a.6.6 0 1 1 .466 1.106l-11.4 4.8A.602.602 0 0 1 12 18Z"/>
    <path d="M12 21.6a.602.602 0 0 1-.233-.047l-11.4-4.8a.6.6 0 0 1 .466-1.106L12 20.348l11.167-4.701a.6.6 0 1 1 .466 1.106l-11.4 4.8A.602.602 0 0 1 12 21.6Z"/>
  </g>
</svg>
