<svg xmlns="http://www.w3.org/2000/svg" width="24" height="24" viewBox="0 0 24 24">
  <path fill="currentColor" fill-rule="evenodd" d="M14.067 8.174c0 .347.271.629.605.629a.618.618 0 0 0 .606-.629c0-1.733 1.358-3.144 3.027-3.144a.618.618 0 0 0 .605-.629.618.618 0 0 0-.605-.628c-1.669 0-3.027-1.411-3.027-3.144A.618.618 0 0 0 14.672 0a.618.618 0 0 0-.605.629c0 1.733-1.358 3.144-3.026 3.144a.618.618 0 0 0-.606.628c0 .347.271.63.606.63 1.668 0 3.026 1.41 3.026 3.143Zm.605-2.265a4.366 4.366 0 0 0-1.451-1.508 4.366 4.366 0 0 0 1.451-1.507A4.368 4.368 0 0 0 16.124 4.4a4.368 4.368 0 0 0-1.451 1.508ZM2.566 12.575a.618.618 0 0 1-.605-.628.618.618 0 0 0-.606-.63.618.618 0 0 1-.605-.628c0-.347.271-.629.605-.629a.618.618 0 0 0 .606-.629c0-.347.27-.628.605-.628.334 0 .605.281.605.628 0 .348.271.63.606.63.334 0 .605.28.605.628a.618.618 0 0 1-.605.629.618.618 0 0 0-.606.629.618.618 0 0 1-.605.628Zm7.338-5.843L22.72 20.044c.341.356.53.828.53 1.334 0 .506-.188.978-.53 1.334l-.71.737a1.773 1.773 0 0 1-2.569 0L6.625 10.137a1.914 1.914 0 0 1-.53-1.334c0-.506.188-.979.53-1.335l.71-.736a1.773 1.773 0 0 1 2.569 0Zm-1.712.889-.71.737h.002a.647.647 0 0 0 0 .889l1.742 1.81L10.79 9.43 9.05 7.62a.593.593 0 0 0-.857 0Zm13.67 14.202-.709.737a.59.59 0 0 1-.855 0L10.082 11.948l1.565-1.626 10.217 10.612a.647.647 0 0 1 0 .89h-.001ZM4.383 5.66c0 .347.271.629.605.629a.618.618 0 0 0 .606-.63c0-1.04.814-1.885 1.816-1.885a.618.618 0 0 0 .605-.63.618.618 0 0 0-.605-.628c-1.002 0-1.816-.846-1.816-1.886A.618.618 0 0 0 4.987 0a.618.618 0 0 0-.605.629c0 1.04-.815 1.886-1.816 1.886a.618.618 0 0 0-.605.629c0 .347.27.629.605.629 1.001 0 1.816.846 1.816 1.886Zm.605-1.884a3.138 3.138 0 0 0-.607-.631c.23-.18.434-.393.607-.631.173.238.378.451.608.63-.23.18-.435.393-.608.632Zm0 15.088a.618.618 0 0 1-.605-.629c0-1.04-.815-1.886-1.816-1.886a.618.618 0 0 1-.605-.629c0-.347.27-.629.605-.629 1.001 0 1.816-.846 1.816-1.886 0-.347.271-.629.605-.629.334 0 .606.282.606.63 0 1.04.814 1.885 1.816 1.885.334 0 .605.282.605.63a.618.618 0 0 1-.605.628c-1.002 0-1.816.846-1.816 1.886a.618.618 0 0 1-.606.629Zm-.607-3.144c.23.18.434.393.607.631a3.14 3.14 0 0 1 .608-.63 3.137 3.137 0 0 1-.608-.632 3.137 3.137 0 0 1-.607.631Z"/>
</svg>
