<svg xmlns="http://www.w3.org/2000/svg" width="20" height="20" viewBox="0 0 20 20">
  <path fill="currentColor" fill-rule="evenodd" d="m13.38 12.678 5.864 6.484.002.001a.504.504 0 0 1-.031.706.487.487 0 0 1-.698-.031l-5.864-6.483A7.283 7.283 0 0 1 8.026 15a7.307 7.307 0 0 1-5.233-2.197A7.499 7.499 0 0 1 .625 7.5c0-2.003.77-3.886 2.168-5.303A7.302 7.302 0 0 1 8.026 0c1.977 0 3.835.781 5.233 2.197A7.5 7.5 0 0 1 15.427 7.5a7.5 7.5 0 0 1-2.047 5.178ZM8.025 1C4.488 1 1.611 3.916 1.611 7.5S4.488 14 8.025 14s6.415-2.916 6.415-6.5S11.562 1 8.025 1Z"/>
</svg>
