<svg xmlns="http://www.w3.org/2000/svg" width="24" height="24" viewBox="0 0 24 24">
  <path fill="currentColor" d="M8.387 19.355a.65.65 0 0 1-.312-.08.632.632 0 0 1-.333-.554V6.052a.63.63 0 0 1 .333-.553.656.656 0 0 1 .654.016l10.323 6.335a.631.631 0 0 1 .303.537.632.632 0 0 1-.303.537L8.729 19.26a.65.65 0 0 1-.342.096zm.645-12.16V17.58l8.46-5.192zM12 24a11.924 11.924 0 0 1-8.486-3.514A11.916 11.916 0 0 1 0 12c0-3.206 1.248-6.218 3.514-8.486A11.918 11.918 0 0 1 12 0a11.92 11.92 0 0 1 8.486 3.515A11.92 11.92 0 0 1 24 12.001a11.92 11.92 0 0 1-3.514 8.485A11.922 11.922 0 0 1 12 24zm0-22.737C6.08 1.263 1.263 6.08 1.263 12S6.08 22.737 12 22.737 22.737 17.92 22.737 12 17.92 1.263 12 1.263z"/>
</svg>
