<svg xmlns="http://www.w3.org/2000/svg" width="32" height="32" viewBox="0 0 32 32">
  <path fill="currentColor" fill-rule="evenodd" d="M.816 0h29.368c.45 0 .816.358.816.8v24c0 .442-.365.8-.816.8H17.471l5.132 5.034a.79.79 0 0 1 0 1.13.828.828 0 0 1-1.155 0l-5.132-5.033V31.2c0 .442-.366.8-.816.8a.808.808 0 0 1-.816-.8v-4.469l-5.132 5.034a.828.828 0 0 1-1.155 0 .79.79 0 0 1 0-1.131l5.132-5.034H.816A.808.808 0 0 1 0 24.8V.8C0 .358.365 0 .816 0Zm28.55 1.6H1.63v19.2h27.734V1.6Zm0 22.4H1.63v-1.6h27.734V24ZM21.644 9.835l-8.333-5.688a.853.853 0 0 0-.864-.055.808.808 0 0 0-.448.72v11.375c0 .303.173.58.448.72a.85.85 0 0 0 .864-.053l8.333-5.688a.805.805 0 0 0 .355-.667.81.81 0 0 0-.355-.666v.002Zm-7.978 4.794V6.375l6.046 4.128-6.046 4.128v-.002Z"/>
</svg>
