<svg xmlns="http://www.w3.org/2000/svg" width="24" height="24" viewBox="0 0 24 24">
  <path fill="currentColor" d="M19.8 4.8h-.6v-.6c0-.992-.807-1.8-1.8-1.8h-.6v-.6C16.8.808 15.993 0 15 0H6a.604.604 0 0 0-.425.175l-4.2 4.2A.6.6 0 0 0 1.2 4.8v12.6c0 .992.808 1.8 1.8 1.8h.6v.6c0 .992.808 1.8 1.8 1.8H6v.6c0 .992.808 1.8 1.8 1.8h12c.993 0 1.8-.808 1.8-1.8V6.6c0-.992-.807-1.8-1.8-1.8ZM6 1.448V4.2a.6.6 0 0 1-.6.6H2.65L6 1.448ZM2.4 17.4V6h3c.993 0 1.8-.808 1.8-1.8v-3H15a.6.6 0 0 1 .6.6v15.6a.6.6 0 0 1-.6.6H3a.6.6 0 0 1-.6-.6Zm2.4 2.4v-.6H15c.993 0 1.8-.808 1.8-1.8V3.6h.6a.6.6 0 0 1 .6.6v15.6a.6.6 0 0 1-.6.6h-12a.6.6 0 0 1-.6-.6Zm15.6 2.4a.6.6 0 0 1-.6.6h-12a.6.6 0 0 1-.6-.6v-.6h10.2c.993 0 1.8-.808 1.8-1.8V6h.6a.6.6 0 0 1 .6.6v15.6Z"/>
</svg>
