<svg fill="none" height="10" viewBox="0 0 10 10" width="10" xmlns="http://www.w3.org/2000/svg" xmlns:xlink="http://www.w3.org/1999/xlink"><mask id="a" fill="#fff"><path clip-rule="evenodd" d="m0 5c0 2.03981 1.52684 3.723 3.5 3.96905v.03095h.5 3.5c1.38071 0 2.5-1.11929 2.5-2.5 0-.84162-.41588-1.58611-1.05335-2.03917.03489-.14794.05335-.30223.05335-.46083 0-1.10457-.89543-2-2-2-.11057 0-.21905.00897-.32475.02623-.70869-.63797-1.64663-1.02623-2.67525-1.02623-2.20914 0-4 1.79086-4 4z" fill="#fff" fill-rule="evenodd"/></mask><path d="m3.5 8.96905h1v-.88304l-.87626-.10927zm0 .03095h-1v1h1zm5.44665-4.53917-.9733-.22953-.15444.65486.54843.38978zm-2.2714-2.4346-.66904.74322.35662.32104.47358-.07733zm-3.05151 5.95051c-1.47884-.18441-2.62374-1.44764-2.62374-2.97674h-2c0 2.55052 1.908792 4.65368 4.37626 4.96137zm.87626 1.02326v-.03095h-2v.03095zm-.5-1h-.5v2h.5zm3.5 0h-3.5v2h3.5zm1.5-1.5c0 .82843-.67157 1.5-1.5 1.5v2c1.933 0 3.5-1.567 3.5-3.5zm-.63266-1.22406c.38488.27354.63266.71989.63266 1.22406h2c0-1.17907-.584-2.2217-1.47404-2.85428zm-.36734-1.27594c0 .08074-.00937.15801-.02665.2313l1.9466.45907c.0525-.22261.08005-.45391.08005-.69037zm-1-1c.55228 0 1 .44772 1 1h2c0-1.65685-1.34315-3-3-3zm-.16359.01316c.05263-.00859.10722-.01316.16359-.01316v-2c-.16478 0-.32714.01338-.4859.0393zm-2.83641-1.01316c.77209 0 1.474.29036 2.00621.76945l1.33809-1.48644c-.88518-.796838-2.05914-1.28301-3.3443-1.28301zm-3 3c0-1.65685 1.34315-3 3-3v-2c-2.76142 0-5 2.23858-5 5z" fill="#3f8fe3" mask="url(#a)"/></svg>