<svg xmlns="http://www.w3.org/2000/svg" width="24" height="24" viewBox="0 0 24 24"><path d="M23.25 6.947v15.158A1.887 1.887 0 0 1 21.375 24H7.625a1.887 1.887 0 0 1-1.875-1.895v-.631h-.625a1.887 1.887 0 0 1-1.875-1.895v-.632h-.625A1.887 1.887 0 0 1 .75 17.053V1.895C.75.85 1.591 0 2.625 0h13.75c1.034 0 1.875.85 1.875 1.895v.631h.625c1.034 0 1.875.85 1.875 1.895v.632h.625c1.034 0 1.875.85 1.875 1.894zM2.625 17.684h13.75a.629.629 0 0 0 .625-.631V1.895a.629.629 0 0 0-.625-.632H2.625A.629.629 0 0 0 2 1.895v15.158c0 .348.28.631.625.631zm2.5 2.527h13.75a.629.629 0 0 0 .625-.632V4.42a.629.629 0 0 0-.625-.632h-.625v13.264a1.887 1.887 0 0 1-1.875 1.894H4.5v.632c0 .349.28.632.625.632zM22 6.947a.629.629 0 0 0-.625-.631h-.625v13.263a1.887 1.887 0 0 1-1.875 1.895H7v.631c0 .349.28.632.625.632h13.75a.629.629 0 0 0 .625-.632zm-8.36 8.803H5.11c-.337 0-.61-.336-.61-.75s.273-.75.61-.75h8.53c.337 0 .61.336.61.75s-.273.75-.61.75zm0-3H5.11c-.337 0-.61-.336-.61-.75s.273-.75.61-.75h8.53c.337 0 .61.336.61.75s-.273.75-.61.75zm-6.015-3h-2.5C4.78 9.75 4.5 9.414 4.5 9s.28-.75.625-.75h2.5c.345 0 .625.336.625.75s-.28.75-.625.75zm0-2.25h-2.5c-.345 0-.625-.336-.625-.75S4.78 6 5.125 6h2.5c.345 0 .625.336.625.75s-.28.75-.625.75zm0-2.25h-2.5c-.345 0-.625-.336-.625-.75s.28-.75.625-.75h2.5c.345 0 .625.336.625.75s-.28.75-.625.75zm6.719 4.5h-3.938c-.362 0-.656-.269-.656-.6v-4.8c0-.331.294-.6.656-.6h3.938c.362 0 .656.269.656.6v4.8c0 .331-.294.6-.656.6zm-3.281-1.2h2.624v-3.6h-2.624z" fill="currentColor"/></svg>
