<svg width="27" height="27" viewBox="0 0 27 27" fill="none" xmlns="http://www.w3.org/2000/svg">
<g clip-path="url(#clip0_9186_24919)">
<path d="M25.348 11.676C25.9239 12.3403 26.2515 13.4375 26.2515 14.4827C26.2515 15.173 26.102 15.7775 25.8186 16.2312C25.4494 16.8214 24.8592 17.1464 24.1572 17.1464H20.7538C22.6063 20.5147 23.0743 23.0523 22.1448 24.6955C21.4961 25.8408 20.3079 26.2464 19.4863 26.2464C19.1613 26.2464 18.8857 26.0059 18.8428 25.6835C18.6101 23.9688 17.2984 21.9226 15.2444 20.0701C13.2762 18.2956 10.8582 16.8773 8.37257 16.0271C8.05927 16.6875 7.38717 17.1451 6.60977 17.1451H2.70977C1.63467 17.1451 0.759766 16.2702 0.759766 15.1951V3.49512C0.759766 2.42002 1.63467 1.54512 2.70977 1.54512H6.60977C7.43397 1.54512 8.13857 2.05862 8.42457 2.78272C10.9739 2.46292 11.9333 1.95072 12.8628 1.45412C14.0263 0.832717 15.1235 0.245117 18.7167 0.245117C19.6527 0.245117 20.5341 0.489517 21.1997 0.932817C21.8497 1.36572 22.2657 1.97412 22.4035 2.67872C22.9222 2.88932 23.3824 3.37552 23.7347 4.09832C24.0779 4.80162 24.3002 5.69992 24.3002 6.38762C24.3002 6.51632 24.2924 6.63462 24.2781 6.74382C24.607 6.98562 24.9021 7.35872 25.1452 7.85012C25.4962 8.55862 25.7068 9.44652 25.7068 10.2239C25.7068 10.7751 25.6041 11.234 25.4026 11.5902C25.3857 11.6188 25.3688 11.6474 25.3519 11.6747L25.348 11.676ZM6.60717 2.84642H2.70717C2.34837 2.84642 2.05717 3.13762 2.05717 3.49642V15.1964C2.05717 15.5552 2.34837 15.8464 2.70717 15.8464H6.60717C6.96597 15.8464 7.25717 15.5552 7.25717 15.1964V3.49772V3.49642C7.25717 3.13762 6.96597 2.84642 6.60717 2.84642ZM24.5979 12.8902C24.4016 12.495 24.2027 12.352 24.1169 12.352C23.7581 12.352 23.4669 12.0608 23.4669 11.702C23.4669 11.3432 23.7581 11.052 24.1169 11.052C24.1715 11.052 24.2105 11.052 24.269 10.9506C24.3548 10.7985 24.4042 10.5346 24.4042 10.2252C24.4042 9.64672 24.2404 8.95902 23.9778 8.42862C23.7204 7.90992 23.4591 7.72142 23.3447 7.72142C22.9859 7.72142 22.6947 7.43022 22.6947 7.07142C22.6947 6.84132 22.8143 6.63852 22.995 6.52282C23.0353 6.11072 22.8429 5.00832 22.3437 4.28942C22.1552 4.01772 21.9563 3.86172 21.8003 3.86172C21.4415 3.86172 21.1503 3.57052 21.1503 3.21172C21.1503 2.06772 19.8867 1.54642 18.7128 1.54642C15.4459 1.54642 14.5307 2.03522 13.4712 2.60202C12.4806 3.13112 11.3678 3.72652 8.55587 4.07622V14.7193C11.2872 15.615 13.9535 17.1594 16.1115 19.1042C18.1824 20.971 19.5422 22.9886 20.0037 24.858C20.3573 24.7449 20.7564 24.5057 21.0125 24.0546C21.4467 23.2876 21.7717 21.3298 19.0716 16.8305C18.9507 16.6303 18.9481 16.3794 19.0638 16.1753C19.1795 15.9712 19.3953 15.8451 19.6293 15.8451H24.1572C24.4159 15.8451 24.5823 15.7541 24.7162 15.5409C24.8683 15.2978 24.9515 14.9208 24.9515 14.4814C24.9515 13.9302 24.8189 13.3348 24.5979 12.8889V12.8902Z" fill="#512FC9"/>
</g>
<defs>
<clipPath id="clip0_9186_24919">
<rect width="26" height="26" fill="currentColor" transform="translate(0.757324 0.246338)"/>
</clipPath>
</defs>
</svg>
