<svg xmlns="http://www.w3.org/2000/svg" width="20" height="20" viewBox="0 0 20 20">
  <path fill="currentColor" d="M16.75 20.013a2.257 2.257 0 0 1-1.597-.655l-.002-.002-7.71-7.709A5.506 5.506 0 0 1 .486 4.235a.5.5 0 0 1 .809-.148l2.912 2.912H6V5.206L3.081 2.287a.498.498 0 0 1 .148-.809A5.555 5.555 0 0 1 5.501.999c3.033 0 5.5 2.467 5.5 5.5 0 .663-.12 1.312-.357 1.936l7.704 7.704c.43.425.668.992.671 1.596s-.231 1.173-.656 1.604a2.248 2.248 0 0 1-1.613.673zm-.894-1.365c.239.236.557.366.894.366.342 0 .662-.133.901-.376a1.264 1.264 0 0 0-.007-1.787l-.002-.002L9.7 8.907a.5.5 0 0 1-.102-.56A4.458 4.458 0 0 0 10 6.5C10 4.019 7.981 2 5.5 2c-.392 0-.78.049-1.15.143l2.504 2.504A.5.5 0 0 1 7 5.001v2.5a.5.5 0 0 1-.5.5H4a.504.504 0 0 1-.354-.146l-2.5-2.5a4.505 4.505 0 0 0 6.205 5.249.5.5 0 0 1 .56.102l7.944 7.943z"/>
</svg>
