<svg viewBox="0 0 1200 627" xmlns="http://www.w3.org/2000/svg" xmlns:xlink="http://www.w3.org/1999/xlink"><clipPath id="a"><path d="m-.38-.86h1200v627h-1200z"/></clipPath><path d="m-.38-.86h1200v627h-1200z" fill="#fff"/><g clip-path="url(#a)" fill="#e6e9ef"><path d="m186.6-.86 256.27 255h-91.01l-254.81-255z" opacity=".3"/><path d="m5.32-.86 201.67 203.31h93.22l-203.16-203.31z" opacity=".6"/><path d="m5.32-.86 302.86 305.23h-86.63l-221.93-219.86v-85.37z" opacity=".3"/><path d="m-.38 84.51 153.15 151.72h-76.58l-76.57-75.86z" opacity=".65"/><path d="m109.36 368.65h8.86v160.7h-8.86z" opacity=".7" transform="matrix(.70710678 -.70710678 .70710678 .70710678 -284.16 211.97)"/><path d="m355.73 40h8.86v160.7h-8.86z" opacity=".8" transform="matrix(.70710678 -.70710678 .70710678 .70710678 20.39 289.92)"/><path d="m1110.55 263.8h8.86v160.7h-8.86z" opacity=".3" transform="matrix(.70710678 -.70710678 .70710678 .70710678 83.22 889.21)"/><path d="m910.58 504.26h8.86v160.7h-8.86z" opacity=".1" transform="matrix(.70710678 -.70710678 .70710678 .70710678 -145.38 818.24)"/><path d="m803.97 444.31h8.86v160.7h-8.86z" opacity=".8" transform="matrix(.70710678 -.70710678 .70710678 .70710678 -134.22 725.29)"/><path d="m445.99 10.94h15.37v98.93h-15.37z" opacity=".1" transform="matrix(.70710678 -.70710678 .70710678 .70710678 90.17 338.49)"/><path d="m48.96 222.76h15.37v98.93h-15.37z" opacity=".3" transform="matrix(.70710678 -.70710678 .70710678 .70710678 -175.9 119.79)"/><path d="m1021.66 142.7h15.37v98.93h-15.37z" opacity=".7" transform="matrix(.70710678 -.70710678 .70710678 .70710678 165.61 784.14)"/><path d="m1012.64 626.14-256.27-255h91.01l254.81 255z" opacity=".3"/><path d="m1193.92 626.14-201.67-203.31h-93.22l203.16 203.31z" opacity=".6"/><path d="m1193.92 626.14-302.86-305.23h86.63l221.93 219.86v85.37z" opacity=".3"/><path d="m1199.62 540.77-153.15-151.72h76.58l76.57 75.86z" opacity=".65"/><path d="m1186.23 186.77h15.37v98.93h-15.37z" opacity=".5" transform="matrix(.70710678 -.70710678 .70710678 .70710678 182.65 913.42)"/><path d="m-2.36 415.45h15.37v98.93h-15.37z" opacity=".5" transform="matrix(.70710678 -.70710678 .70710678 .70710678 -327.18 139.93)"/></g></svg>