<svg xmlns="http://www.w3.org/2000/svg" viewBox="0 0 20 20"><path fill="#512fc9" fill-rule="evenodd" d="M13.38 12.678l5.864 6.484.002.001a.504.504 0 01-.031.706.487.487 0 01-.698-.031l-5.864-6.483A7.283 7.283 0 018.026 15a7.307 7.307 0 01-5.233-2.197A7.499 7.499 0 01.625 7.5c0-2.003.77-3.886 2.168-5.303A7.302 7.302 0 018.026 0c1.977 0 3.835.781 5.233 2.197A7.5 7.5 0 0115.427 7.5a7.5 7.5 0 01-2.047 5.178zM8.025 1C4.488 1 1.611 3.916 1.611 7.5S4.488 14 8.025 14s6.415-2.916 6.415-6.5S11.562 1 8.025 1z"/></svg>