<svg viewBox="0 0 988.04748 1024" xmlns="http://www.w3.org/2000/svg"><path d="m493.98141 212.40445c.00797 0 .01431.00159.02225.00159s.01428-.00159.02222-.00159h-.04446z" fill="#554c9b"/><g fill="#512fc9"><path d="m980.3471 656.63342-99.85138-85.02136 1.84839-11.53656c2.09137-15.59698 2.77417-31.87524 2.77417-47.95502 0-19.9798-1.04486-40.52014-4.62256-59.49316l99.85138-84.89749 2.21045-1.84998c2.65344-2.61221 4.46216-6.02792 5.14496-9.68658.72412-3.69998.24139-7.51743-1.28625-10.93475-20.37994-61.50195-55.55341-120.02963-98.80487-168.54996-6.11047-6.95213-14.75378-9.48653-22.87305-5.94853l-125.81146 42.93068-10.45197-8.07957c-28.64532-21.30415-60.06805-38.58759-93.39471-51.3739l-24.91992-127.90755-.72253-2.65349c-1.24182-3.61739-3.44116-6.79332-6.36774-9.24514-2.92664-2.45341-6.46466-4.06043-10.22968-4.62257l-.04449-.04129c-65.20508-13.02292-132.33957-13.02292-197.53989 0-4.23352.64313-8.16058 2.57409-11.26028 5.50866-3.0997 2.97267-5.21329 6.79332-6.06604 11.01255l-24.91519 127.91074-11.3063 4.50188c-33.40448 13.66763-64.60327 32.15791-92.58484 54.95001l-125.77808-42.97197-2.77419-.88292c-3.67455-.88449-7.52061-.686-11.09512.52245-3.57769 1.24655-6.72504 3.457-9.08475 6.38998-43.30863 48.52032-78.42175 107.04798-98.77313 168.54997-1.74517 3.85876-2.09135 8.20184-.9766 12.302 1.11316 4.10013 3.61262 7.71591 7.07757 10.16931l99.84024 84.93719-1.87698 11.53656c-2.09135 15.59702-2.73448 31.95941-2.73448 47.91687-.27631 19.93854 1.26244 39.83734 4.61146 59.49158l-99.79578 85.02136-2.21839 1.80707c-2.66937 2.65192-4.47013 6.03113-5.16566 9.72791-.69077 3.69836-.24455 7.51746 1.28308 10.93317 20.35138 61.54321 55.4645 119.9931 98.76995 168.42926 6.14543 6.995 14.8046 9.52625 22.91277 6.03113l125.77808-43.01324 9.17371 7.39832c28.9137 21.78693 60.81595 39.35297 94.71744 52.09485l24.91519 127.99011.68442 2.65192c1.24973 3.5777 3.46017 6.79492 6.39474 9.24829 2.92981 2.45026 6.47256 4.01758 10.24716 4.62256 32.59619 5.94855 65.19238 9.44525 98.80966 9.44525 33.58069 0 66.17847-3.4967 98.77472-9.44525 4.22394-.68597 8.14783-2.61377 11.2428-5.54834 3.09491-2.97583 5.21802-6.79333 6.07715-10.97443l24.95966-127.99011 12.45758-5.02594c32.93762-13.90741 63.78546-32.2373 91.39386-54.46722l125.76697 43.01324 2.73285.92419c7.3158 1.97064 14.71252-.72412 20.17993-6.95532 43.3324-48.43616 78.42493-106.88605 98.76514-168.42926 1.76904-3.85876 2.09137-8.2384 1.00519-12.34167-1.12427-4.09857-3.61737-7.67627-7.07434-10.12646zm-486.32123 154.99982c-165.80118 0-300.19876-134.13873-300.19876-299.59375 0-165.4455 134.30231-299.62073 300.17654-299.63345-.00793 0-.01428-.00159-.02225-.00159h.04446c-.00793 0-.01428.00159-.02222.00159 165.83295.01271 300.22736 134.18796 300.22736 299.63345 0 165.45502-134.40552 299.59375-300.20514 299.59375z"/><path d="m494.02111 307.2283c-113.0918.00793-205.10654 91.88135-205.10654 204.80008s92.01474 204.78418 205.11447 204.78418 205.11292-91.86542 205.11292-204.78418-92.02106-204.79214-205.12085-204.80008zm.00793 325.14096c-66.54056 0-120.67117-53.98132-120.67117-120.34088 0-66.36749 54.12268-120.35675 120.64578-120.35675 66.54852 0 120.69501 53.98926 120.69501 120.35675 0 66.35956-54.12903 120.34088-120.66962 120.34088z"/></g></svg>