<svg fill="none" height="280" viewBox="0 0 1304 280" width="1304" xmlns="http://www.w3.org/2000/svg" xmlns:xlink="http://www.w3.org/1999/xlink"><radialGradient id="a" cx="0" cy="0" gradientTransform="matrix(62.9328 0 0 62.9468 854.688 89.9223)" gradientUnits="userSpaceOnUse" r="1"><stop offset="0" stop-color="#fff"/><stop offset=".38" stop-color="#f4f6f8"/><stop offset=".88" stop-color="#dfe5ea"/></radialGradient><radialGradient id="b" cx="0" cy="0" gradientTransform="matrix(118.113 0 0 118.139 799.269 144.952)" gradientUnits="userSpaceOnUse" r="1"><stop offset="0" stop-color="#fff"/><stop offset=".35" stop-color="#fcfdfd"/><stop offset=".6" stop-color="#f3f5f7"/><stop offset=".82" stop-color="#e3e8ed"/><stop offset=".87" stop-color="#dfe5ea"/></radialGradient><mask id="c" height="280" maskUnits="userSpaceOnUse" width="1304" x="0" y="0"><path d="m0 0h1304v280h-1304z" fill="#fff"/></mask><g mask="url(#c)"><g fill="#cdd8dd" opacity=".5"><path d="m10.7516 222.394c-1.34608 2.201-2.94196 4.238-4.75586 6.071-2.21013 2.215-4.71446 4.116-7.44249 5.648-5.41667 3.143-13.58505 8.477-26.65005 18.071l-14.69 1.452-1.3433.13c-.0054.054-.0054.109 0 .163-1.2.221-2.4238.283-3.64.184-3.1417-.249-3.4125-1.355-8.2117-2.732-5.9583-1.712-7.4425-.552-13.8125-2.298-3.64-1.008-3.8025-1.561-7.0525-2.601-5.123-1.57-10.5062-2.108-15.8383-1.583-.9864-.877-1.8274-1.905-2.4917-3.046 2.3184-.531 4.2684-.878 5.7525-1.204 7.2042-1.528 9.2084 2.331 15.5134.998 4.615-.998 5.6116-2.819 10.01-2.754.7487.009 1.4952.082 2.2316.217 2.0444.502 4.0501 1.151 6.0017 1.941 1.8092.65 4.1167 1.235 6.89 1.994 4.882-1.126 9.6106-2.836 14.0833-5.095 2.2425-1.192 1.6359-1.084 9.75-6.092 8.1142-5.008 8.8184-5.279 10.8334-7.231 2.6077-2.601 4.81631-5.575 6.55414-8.824 1.08733-2.022 1.99363-4.137 2.70833-6.32-3.54258-.667-6.88087-2.152-9.74997-4.336-2.1378-1.623-3.9716-3.612-5.4167-5.875-5.6117 1.626-10.205 2.591-13.325 3.176-4.0733.748-6.11.932-10.8333 1.8-4.9942.921-8.9917 1.853-11.5159 2.493v.13c-9.2408 1.019-13.8233-.629-17.8641-2.851-2.3725-1.312-4.8209-3.176-10.8334-6.504-1.95-1.099-3.8638-2.129-5.7416-3.09l1.3-4.282 13.845-19.989h.1191c3.3367 1.853 6.11 3.577 8.32 5.03 2.5471 1.614 4.9632 3.426 7.2259 5.42 2.3053 2.07 4.4225 4.341 6.3266 6.786 2.1515-.318 4.3317-.394 6.5-.228 2.9034.228 5.1025.867 12.4259 3.393 2.3508.813 5.1675 1.8 8.3525 2.927 1.4861-.752 2.9325-1.581 4.3333-2.482 5.3625-3.458 6.7383-5.789 10.1617-7.675 1.45505-.799 3.01623-1.387 4.63664-1.746l1.08334.879c1.92111 2.428 3.82055 4.896 5.698325 7.403 1.690005 2.244 3.369175 4.467 5.059175 6.667.39 3.252.91 6.775 1.60333 10.396.97295 5.121 2.21692 10.187 3.72669 15.177z"/><path d="m19.115 248.791c-2.6115 1.249-5.0333 2.862-7.1933 4.791-3.52088 3.144-5.41671 6.277-7.45338 9.865-2.30624 3.966-4.183773 8.167-5.60083 12.531-4.51962 1.259-8.96469 2.772-13.31419 4.531-8.4391 3.415-9.9558 5.139-14.6575 5.323-4.4958.184-4.6908-1.323-12.2633-1.865-3.634-.437-7.3122-.346-10.92.271-4.9942.976-6.9767 2.667-12.2525 2.927-.9779.055-1.958.055-2.9358 0-.8523-2.89-1.737-5.817-2.6542-8.78-1.1483-3.708-2.3039-7.368-3.4667-10.982 1.9825 0 3.7484 0 5.3084.109 4.5848.299 9.1843.299 13.7691 0 2.9142-.206 5.4817-.531 7.5834-.846 1.1591-.173 2.1666-.357 3.0333-.52h.1192c3.4058 1.162 6.9186 1.983 10.4866 2.45 1.9175.249 3.7375.39 5.4167.455.9967-.748 2.47-1.854 4.3333-3.165 5.8825-4.228 7.2475-4.727 8.125-4.976 2.529-.663 5.1955-.584 7.68086.228 2.28201-3.822 4.77013-7.517 7.453326-11.068 2.675834-3.556 5.351664-6.721 7.897504-9.496 2.43081-.627 4.77961-1.536 6.99831-2.711 1.3324-.692 2.6139-1.478 3.835-2.352.1734 1.756.325 3.577.4334 5.42.1444 2.768.2238 5.388.2383 7.86z"/><path d="m18.4111 235.598c-1.2211.874-2.5026 1.66-3.835 2.352-2.2187 1.175-4.5675 2.084-6.9983 2.71-2.54583 2.775-5.22167 5.941-7.897502 9.496-2.683198 3.552-5.171318 7.246-7.453328 11.068-2.48537-.812-5.15177-.891-7.68087-.227-.8775.249-2.2425.748-8.125 4.975-1.8308 1.312-3.3041 2.418-4.3333 3.166-1.6792-.065-3.4992-.206-5.4167-.456-3.568-.466-7.0808-1.287-10.4866-2.449-.1192-4.098-.2384-8.196-.3359-12.304.4489-.075.8937-.172 1.3325-.293l14.7225-1.409c13.065-9.594 21.22253-14.927 26.65003-18.071 2.72804-1.532 5.23237-3.432 7.4425-5.648 1.8139-1.833 3.40978-3.87 4.75587-6.07l7.5833 12.26c.0108.271.0542.585.0758.9z"/></g><path d="m12.5504 211.814c-1.3472 2.196-2.94304 4.23-4.75583 6.06-2.21403 2.218-4.72187 4.122-7.45333 5.659-5.41667 3.143-13.57414 8.477-26.65004 18.07l-14.6791 1.453-1.3434.13v.163c-1.2005.216-2.4237.278-3.64.184-3.1416-.249-3.4016-1.355-8.2008-2.732-5.9583-1.713-7.4533-.564-13.8233-2.298-3.64-1.008-3.7917-1.572-7.0417-2.602-5.1221-1.574-10.5062-2.112-15.8383-1.582-.993-.874-1.8381-1.903-2.5025-3.046 2.3291-.532 4.2683-.879 5.7633-1.204 7.2042-1.528 9.1975 2.331 15.5025.987 4.6258-.987 5.6225-2.808 10.01-2.743.7526.004 1.5032.076 2.2425.217 2.0454.499 4.0513 1.147 6.0017 1.94 1.7983.651 4.1166 1.236 6.8791 1.984 4.8825-1.119 9.6114-2.826 14.0834-5.084 2.2316-1.192 1.625-1.084 9.75-6.103s8.8183-5.269 10.8333-7.22c2.58756-2.606 4.7777-5.579 6.5-8.824 1.09221-2.024 1.99871-4.143 2.70834-6.331-3.54511-.659-6.88524-2.144-9.75004-4.336-2.1399-1.621-3.9741-3.61-5.4166-5.875-5.6117 1.626-10.205 2.591-13.325 3.165-4.0734.759-6.11.943-10.8334 1.811-5.005.921-9.0025 1.853-11.5266 2.493v.13c-9.2517 1.008-13.8234-.629-17.8642-2.851-2.3833-1.312-4.8208-3.176-10.8333-6.504-1.95-1.092-3.8675-2.121-5.7525-3.09l1.3-4.282 13.8558-20h.1192c3.3258 1.864 6.11 3.588 8.32 5.041 2.5452 1.616 4.9611 3.429 7.2258 5.42 2.3046 2.064 4.4184 4.331 6.3158 6.775 2.1699-.316 4.3682-.388 6.5542-.217 2.9033.228 5.0917.867 12.415 3.393 2.3617.813 5.1675 1.789 8.3633 2.927 1.469-.752 2.8974-1.58 4.2792-2.482 5.4167-3.458 6.7383-5.789 10.1725-7.675 1.48566-.831 3.08404-1.44 4.74501-1.811l1.08332.878 5.59001 7.459c1.69 2.24 3.38 4.462 5.07 6.666.37917 3.252.89916 6.765 1.5925 10.396.97295 5.122 2.21696 10.187 3.72666 15.177z" fill="#cdd8dd"/><path d="m20.903 238.199c-2.6078 1.256-5.0258 2.872-7.1825 4.803-3.035 2.835-5.55985 6.172-7.46418 9.864-2.30206 3.967-4.17594 8.168-5.590007 12.532-4.524123 1.251-8.973043 2.761-13.325013 4.52-8.4283 3.426-9.9558 5.149-14.6575 5.334-4.4958.184-4.6908-1.323-12.2525-1.865-3.6337-.443-7.3126-.351-10.92.271-4.9942.976-6.9767 2.667-12.2525 2.927-.9814.055-1.9652.055-2.9467 0-.8558-2.905-1.7333-5.832-2.6541-8.781-1.1339-3.7-2.2859-7.342-3.4559-10.927 1.9825 0 3.7375 0 5.2975.109 4.5849.299 9.1844.299 13.7692 0 2.9142-.206 5.4817-.531 7.5833-.846 1.1484-.173 2.1667-.357 3.0225-.52h.13c3.4088 1.152 6.9206 1.972 10.4867 2.45 1.9067.249 3.7375.39 5.4167.455.9858-.748 2.4591-1.864 4.3333-3.176 5.8933-4.217 7.2475-4.716 8.125-4.965 2.5327-.664 5.20267-.585 7.69168.228 2.27909-3.811 4.76359-7.495 7.4425-11.036 2.68667-3.555 5.35167-6.721 7.90833-9.496 2.42799-.635 4.77589-1.544 6.99839-2.71 1.3309-.695 2.6123-1.481 3.8349-2.352.1734 1.756.3142 3.577.4334 5.42.13 2.71.2167 5.301.2275 7.761z" fill="#cdd8dd"/><path d="m20.2092 225.018c-1.2227.871-2.5041 1.657-3.835 2.352-2.2225 1.166-4.5704 2.075-6.99837 2.71-2.55667 2.775-5.22166 5.941-7.90833 9.496-2.6799 3.552-5.16442 7.246-7.4425 11.068-2.48902-.812-5.159-.891-7.6917-.227-.8775.249-2.2316.748-8.125 4.964-1.8308 1.312-3.3041 2.429-4.3333 3.177-1.6792-.065-3.51-.206-5.4167-.456-3.5661-.477-7.0779-1.297-10.4866-2.45-.13-4.097-.2384-8.195-.3467-12.303.4527-.074.9011-.171 1.3433-.293l14.6792-1.453c13.0758-9.593 21.2225-14.927 26.650001-18.071 2.731459-1.536 5.239299-3.44 7.453329-5.658 1.81279-1.83 3.40857-3.864 4.75587-6.06l7.5833 12.261z" fill="#f2f3f4"/><path d="m1270.09 144.865-4.48.195s.62.402-.45.445l2.81.282-1.71 1.746h-1.09v.152h.59l-.87.813v1.692h-.76v1.378l.26.65v3.482l-.31.499v3.123h.33v2.679l-.33.401v7.755h-.65v-7.755l-.34-.401v-2.679h.34v-3.123l-.32-.499v-3.482l.26-.65v-1.378h-.69v-1.692l-.87-.813h.59v-.152h-1.09l-1.71-1.746 2.81-.282c-1.09 0-.45-.445-.45-.445l-4.49-.195-1.94-.651 3.08-2.255 1.92-.38h3.25 3.26l1.92.38 3.08 2.255z" fill="#cdd8dd"/><path d="m1311.81 72.3094c-24.45 6.6625-49.52 10.7374-74.82 12.1577-63.97 3.6332-111.84-9.9127-133-15.3788-128.879-33.2954-262.021-15.6499-286.439-12.4071-52.469 6.9519-68.625 15.5848-213.607 39.9111-35.977 6.0407-60.222 9.7607-93.044 7.3967-69.905-4.9999-85.302-30.8337-147.204-46.0931-103.345-25.4759-116.541 32.6989-218.086 6.5072-59.2351-15.2378-94.2471-45.1494-140.65514-27.7968-26.67376 10.032-45.89846 35.7899-46.19116 35.4645-.2928-.3254 21.3932-20.7256 41.008204-39.0435 15.841596-9.4355 38.232396-19.0879 62.932796-15.2595 20.8944 3.2537 34.4699 14.6847 40.3363 19.0229 65.47 48.4898 181.164-44.86748 282.904 5.7372 38.916 19.3591 43.156 42.0368 84.522 49.2599 27.107 4.7394 54.952 0 110.598-9.6199 26.652-4.5768 45.899-9.1319 53.651-10.5634 71.922-13.2423 127.08-20.3569 163.307-25.0421 182.162-23.5129 273.247-35.2801 336.297-14.8474 39.53 12.8193 58.28 30.4973 111 34.4234 39.51 2.9499 74.21-3.6116 98-9.9127z" fill="#edf0f2" opacity=".35"/><path d="m1145.41 81.7449-1.51 2.1582-6.95.0217v8.1449l-3.85 2.9283v-10.737h-6.56l-3.15-1.2363-10.62-.1193-2.6.8025h-4.41l-3.73-.8025h-37.96l-1.47.8025h-32.67v-2.4619h75.72v-1.1605h3.39v1.1605h19.95v-1.0845h3.96v-1.7136h.48v-6.876h1.19v2.7764h.5v-1.2689h.4v3.1669h1.38v5.4986z" fill="#dfe5ea"/><ellipse cx="856.022" cy="57.9826" fill="url(#a)" opacity=".7" rx="28.9074" ry="28.9139"/><ellipse cx="801.774" cy="85.0093" fill="url(#b)" opacity=".7" rx="54.2475" ry="54.2596"/><path clip-rule="evenodd" d="m1148.74 81.7774v-1.6919l-1.14-1.5075v-7.8196l-.4-.6615v-1.4099l-.14-.0759v-2.386l-.09-.1193v2.7655l-.35-.7266v-4.0236l-.06.1843v3.1235h-.28v3.5573c-.08.1004-.2.1592-.33.1592-.12 0-.24-.0588-.32-.1592l-.11-7.3315-.32-.1627v-1.2038l.37-.7375v-3.3621l-.08.2061v1.2472h-.09v-4.5334l-.13.3037v4.1755h-.29l-1.73 3.2536v.2711l-.2-.2169v-1.8979l-.11.2603v10.1621l-.62.9761v-6.1168s-.8-1.0845-.66-3.9911h-.1v-2.7005l-.15.4338v9.2186l-.32.2494v13.123l-.34.3037v4.1429l-1.24.9652v1.7245h10.17v-6.8218zm-5.68-9.1535-.69.976v-.3579l.69-.9435zm2.5 6.6373 1-.8893v-.911l-1-1.3014zm1-3.2753-1-1.7135v-1.3774h1zm1.81 12.0059h.3v-4.6201l-.3-.2169z" fill="#dfe5ea" fill-rule="evenodd"/><path d="m1218.96 60.6505-8.33.9002-11.93 3.72v-19.5651l4.85 1.7135c.71 1.9698 1.85 3.7534 3.35 5.2167 2 1.9305 3.72 2.3317 6.69 4.0995 1.91 1.1296 3.71 2.4407 5.37 3.9152z" fill="#dfe5ea"/><path d="m1230.57 82.157c.98 2.5379 1.95 5.0684 2.92 7.5918l-19.04.9002c-2.63 2.3064-5.24 4.6237-7.85 6.9519-1.56 3.3151-2.55 6.8731-2.91 10.5201-.3 3.377-.07 6.779.67 10.086.49 2.462 1.01 5.542 1.48 9.436l-104.98-.543c1.47-12.06 6.5-18.806 9.31-21.962 3.31-3.654 7.08-5.9645 14.52-10.422 5.9-3.5552 11.99-6.7882 18.24-9.6849.46-1.3774 1.16-3.2537 2.1-5.336 2.08-4.5055 4.58-8.8019 7.47-12.8301 4.46-6.0843 16.16-16.7562 34.34-25.3891 3.97 1.399 7.94 2.8198 11.93 4.2297v19.5868l11.86-3.7417 8.3-.9218c.33.2928.67.6073 1 .9218l3.6.217c.98 1.7678 1.91 3.3295 2.76 4.6526 2.4 3.7383 5.01 7.3308 7.84 10.7587 1.86 2.3317 3.49 4.2297 4.7 5.5962z" fill="#edf0f2"/><path d="m1316.74 128.217-110.9-.574c-.47-3.894-.99-6.974-1.48-9.436-.74-3.307-.97-6.709-.67-10.086.36-3.647 1.35-7.205 2.91-10.5201 2.61-2.3282 5.23-4.6455 7.85-6.9519l19.04-.9002c-.96-2.5378-1.94-5.0684-2.92-7.5918l8.3.6616c-1.22-1.3665-2.84-3.2536-4.71-5.5962-2.82-3.4279-5.44-7.0205-7.84-10.7587-.84-1.3231-1.78-2.8849-2.75-4.6527l2.73.1627c3.09 2.6897 7.59 6.8326 13.01 12.277 2.92 2.9608 3.1 3.2536 4.47 4.4683 6.3 5.4227 11.4 6.1819 17.87 9.3054 1.88.9219 1.23.7592 14.51 10.4224 12.22 8.9152 18.43 13.3832 21.21 14.0992 6.29 1.713 11.38.987 13.78 4.837.72 1.171 1.28 2.885 3.71 7.44.77 1.453 1.43 2.614 1.88 3.394z" fill="#dfe5ea"/><path d="m1149.59 120.311c-.23 5.423-37.69 3.254-81.5 1.009 2.04-11.084 1.68-18.991.48-24.7169-2.15-10.1079-7.78-18.2854-6.8-30.66.2-2.7057.73-5.3777 1.56-7.9605 13.81 18.1769 26.02 27.8619 34.76 33.4147 3.19 2.0064 4.28 2.4294 15.84 8.5028 23.81 12.5049 35.73 18.7949 35.66 20.4109z" fill="#dfe5ea"/><path d="m1111.16 120.571c-27.89-.723-56.31-1.084-85.26-1.084-46.988-.043-92.619.81-136.894 2.559 12.318-6.149 31.098-15.563 54.139-27.2107 29.428-14.8799 33.993-17.3527 40.943-20.4111 24.832-10.9612 51.642-16.7474 78.782-17.0056.16.1953.31.4122.46.5965.66 1.8438 1.33 3.6875 1.99 5.5312l-.94 2.1691c0 1.3773.1 2.7656.14 4.1429l-1.2 3.6115 7.22 4.5443 7.81 12.5156 11.99 8.6763 16.12 5.021z" fill="#edf0f2"/><path d="m497.162 106.646-180.579 2.625c-4.544-4.74-8.805-8.915-12.654-12.5595-4.728-4.4683-8.371-7.6568-10.269-9.327-8.587-7.5918-20.883-18.3288-36.063-31.6252l4.749-14.0991 14.41 4.284c1.941.6073 4.576 1.4532 7.677 2.4727 3.535 1.1496 11.396 3.7634 21.469 7.44 4.793 1.7461 10.496 3.8826 16.915 6.4096l16.644 12.0493 6.506 1.7461 22.608 11.29 7.102 2.9391 41.626 2.3101 39.436 1.4858 5.541 1.1713 3.806 3.1452z" fill="#dfe5ea"/><path d="m316.582 109.271-296.3388 4.338 28.6363-16.1057 10.6479-2.8199 22.4016-4.5442 24.44-21.6149 9.683-1.3557 23.106 6.2362c25.243-.1519 41.572-7.7111 49.564-12.2445 14.356-8.1558 28.387-21.6908 35.554-28.5777 2.982-2.8632 5.421-5.3142 6.994-6.9953l5.887-.1084 12.936 10.2272 5.422 2.95 6.842 3.0584 4.001 7.2881-.749 5.542 6.658 5.0539 1.084 4.8046 14.649 9.2294 9.369 13.6761 9.357 3.8176 4.055 4.1863z" fill="#edf0f2"/><path d="m525.407 69.5872c-.401.1735-1.648 0-14.356-15.1077-.77-.9218-1.941-2.3209-2.917-2.0498-1.756.4989-.878 5.9542-1.561 13.8822-.878 10.1187-3.491 14.9883-1.973 15.8559.845.4772 2.906-.2928 8.511-6.6807.727 3.3837 1.941 8.5787 3.936 14.804 2.82 8.8064 4.338 10.8449 4.522 14.5439.13 3.145-.792 7.244-4.771 12.266l-66.5.098c7.562-5.422 14.272-11.943 19.908-19.3487 3.77-4.9837 6.72-10.5378 8.739-16.4525 1.579-4.6646 2.556-9.512 2.906-14.4244l5.703-1.3882 7.189 6.5073c.597-3.0476 1.204-6.0952 1.8-9.1427l3.871-2.9717 2.169-5.1407c-.813-2.8089-1.637-5.6179-2.451-8.4269.817-3.8899 1.634-7.787 2.451-11.6913.119-3.0042.228-6.0084.347-9.0126l4.684-8.2316 15.571 18.9144c.878 5.9758 1.626 11.5178 2.277 16.5826 1.344 10.9322 1.767 15.8126-.055 16.6152z" fill="#edf0f2"/><path d="m516.798 117.101c5.226-3.427 6.733-9.089 4.771-12.266-1.54-2.484-4.858-2.939-5.693-3.037l-1.886-2.7222 2.689-3.6766c-.879-1.475-1.757-2.9391-2.624-4.4141-.326-5.1624-.655-10.3284-.987-15.4981l-5.628 8.0473-6.093.6291c1.735-5.9505 3.462-11.9011 5.183-17.8516l-.879-9.9669 2.353-6.4096 3.047 4.5442c4.786 5.0612 9.571 10.0971 14.356 15.1076l-1.138-12.5698v-.1518c0-.0759.249-.9219 1.084-3.8935l-4.695-4.6093-3.155-8.8173 5.681-3.1561c3.159 4.4699 6.63 8.7103 10.388 12.6892 1.952 2.0714 3.849 3.926 5.714 5.6179 5.414 4.7766 11.189 9.1277 17.273 13.0145 8.848 5.7697 29.808 15.9861 58.791 25.9097l4.034 1.0845 21.816.3037c-.214-1.8626-.828-3.6568-1.8-5.26-3.362-5.4227-9.705-6.3012-10.756-6.4314l-.9-1.4532 14.226 1.4966 32.464 6.5832 15.624 3.644c19.185 1.3593 39.064 3.2754 59.637 5.7481 36.866 4.4899 71.423 10.4439 103.409 17.2229z" fill="#dfe5ea"/><path d="m1310.17 95.627c-5.64 5.747-12.16 10.571-19.3 14.294-7.96 4.083-16.55 6.768-25.42 7.939-48.49 6.844-114.34-.52-114.34-.52-40.69-4.556-81.86-2.094-122.8-3.178-55.065-1.475-82.595-2.169-103.739-2.625-82.407-1.594-109.926-.249-167.904-.802-89.043-.835-150.718-5.206-187.172-7.223-91.092-5.0869-257.814-8.3405-587.2675-2.419l-2.4072 359.981 1335.1697 3.926c-1.62-123.124-3.23-246.249-4.82-369.373z" fill="#e6ebef"/><path d="m-2.76559 189.082c9.61381 6.627 19.84679 12.308 30.55559 16.962 11.1684 4.817 22.7927 8.497 34.6976 10.987 25.4485 5.303 35.9879 1.485 66.2394 2.104 25.406.531 21.264 3.253 63.692 6.865 36.595 3.069 54.898 4.609 72.356 2.635 31.542-3.59 39.306-11.637 75.901-14.24 16.926-1.204 28.343-.423 38.427 0 22.402.922 38.254 0 178.834-16.268 51.417-5.943 60.829-7.147 76.085-9.761 34.644-5.9 62.965-12.722 82.407-17.862 14.862 5.961 30.407 10.053 46.278 12.179 21.686 2.874 36.747.998 54.117 0 21.253-1.225 24.386.109 81.572 2.43 0 0 74.535 3.025 193.744-6.508 12.87-.748 33.61-4.219 50.2-19.521 1.92-1.758 3.73-3.627 5.42-5.597l13.46-1.822 16.96-1.084 56.29-13.015c1.84-1.486 3.77-2.982 5.81-4.468 4.33-3.254 8.67-6.008 12.73-8.427l17.82-1.497 17.82-5.813 24.69-6.583c-.6 108.1-1.2 216.192-1.8 324.278l-1322.8173-3.677z" fill="#dce2e5"/><path d="m1304.67 158.292c-.33 84.551-.66 169.109-.99 253.674l-63.04-.282c2.17-76.077 4.34-152.15 6.51-228.22-2.9-1.383-5.93-2.473-9.04-3.254-3.32-.813-6.72-1.274-10.14-1.377l-5.36 15.184c-.94-7.057-1.88-14.121-2.82-21.192-1.57-.732-3.21-1.32-4.89-1.757-1.81-.464-3.67-.737-5.55-.814l-5.92 16.268c.19-5.719.38-11.441.57-17.168l-12.03-3.308c6.16-.683 14.88-1.431 25.3-1.702 20.14-.499 28.97 1.323 42.88 1.084 15.11-.245 30.1-2.649 44.52-7.136z" fill="#cdd8dd"/><path d="m1247.14 183.464c-2.17 76.062-4.34 152.136-6.51 228.22l-1240.793073-5.52c-.245774-31.033-.448177-62.032-.607208-93-.195174-33.729-.343359-67.473-.444559-101.231l12.46944 2.256c15.7111 8.575 33.4885 12.633 51.3633 11.724 13.3477.824 33.494 2.006 58.0971 3.156 71.564 3.362 64.689 1.084 87.036 3.611 9 1.02 56.883 6.508 77.55 5.716 7.929-.347 15.825-1.223 23.637-2.625 3.004-.531 4.739-.997 10.724-2.169 7.84-1.605 14.248-2.798 18.487-3.568l11.104-4.251c4.998-1.085 13.011-2.701 23.041-4.219 27.986-4.251 39.989-2.917 81.192-5.824 64.831-4.566 62.445-7.917 118.688-10.845 24.397-1.259 35.012-1.15 56.308-3.861 22.184-2.831 32.919-5.781 60.861-8.503 10.139-.976 20.504-1.963 34.232-2.31 21.686-.532 34.871.965 54.789 2.31 16.015 1.084 31.445 1.496 62.38 2.332 48.729 1.279 53.196-.651 116.411 0 44.455.444 42.623 1.399 63.895.759 35.08-1.085 47.92-3.894 82.94-5.423 16.4-.705 40.44-1.236 69.99 0l16.39-23.86 1.59-.184 12.02 3.308c-.18 5.726-.36 11.449-.56 17.168l5.92-16.268c1.88.076 3.74.349 5.55.813 1.68.437 3.32 1.025 4.89 1.757.94 7.071 1.88 14.135 2.82 21.192l5.36-15.184c3.42.103 6.81.565 10.14 1.378 3.11.746 6.14 1.799 9.04 3.145z" fill="#d7dde0"/><path d="m-1.39912 196.945c6.14798-1.92 13.73812-4.111 22.51002-6.236 0 0 12.1767-2.95 24.3209-5.011 22.7052-3.85 47.1128-3.319 68.6792-3.579 9.954-.119 30.003-1.269 70.111-3.579 34.307-1.974 54.725-3.492 65.058-4.338 14.096-1.085 25.85-2.093 34.34-2.863-2.873-.185-14.66-1.269-22.174-10.726-1.886-2.357-3.353-5.02-4.337-7.874 23.854-1.464 48.869-3.644 74.892-6.703 31.131-3.654 60.58-8.22 88.219-13.329l14.909-4.772 23.714-3.101c-123.61 2.353-186.999-.933-222.227-4.707-18.271-1.952-41.941-5.423-77.55-5.813-23.561-.25-35.966 1.084-65.2094-.716-16.2645-.976-29.9375-2.419-45.3671-4.056-22.239-2.321-40.75881-4.751-53.91138-6.605 1.33008 31.343 2.671 62.679 4.02276 94.008z" fill="#dfe5ea"/><path clip-rule="evenodd" d="m46.7652 221.629v-10.13l4.3914-.824v-13.014l-3.2529-2.831v-32.634l-1.6481-2.408v39.922l-1.9951.076v-26.235l-4.7601 6.377v27.298h-3.5782l-7.1781 10.499v17.873l25.4377 2.245v-10.694zm-4.4565-20.172-1.2035 2.082v-22.613l1.2035-1.301zm.6831 15.465 1.0843-1.366v-7.853l-1.0843-2.993z" fill="#d7dde0" fill-rule="evenodd"/><path d="m83.3169 235.793v-13.708l-1.6915-4.306v-4.772l-2.006-3.861v-13.709h-2.4613v-10.162l-3.3939-9.392v14.782h-1.9951v15.173l-2.1578-.694v-10.455l-2.624 3.872v16.441l-5.6926 3.232v10.325l-7.1238-.032v2.863l7.1998-.098v7.939z" fill="#d7dde0"/><path d="m2.86133 240.728c11.37067-1.779 22.82087-3.529 34.35067-5.249 11.9634-1.794 23.8654-3.532 35.706-5.217 7.1785-5.264 16.1182-7.538 24.9389-6.345l16.1451 1.085 11.602 2.364c22.663 8.675 46.353 14.38 70.48 16.973 18.645 1.997 37.443 2.12 56.112.369l22.901 2.787c19.712 7.592 34.383 8.677 44.456 8.004 4.836-.314 15.18-1.442 24.722 4.403 3.516 2.178 6.576 5.018 9.01 8.362 1.197-10.299 7.402-19.342 16.579-24.163l11.049-12.603 17.891-3.98c16.303 1.843 32.691 2.831 49.097 2.961 32.811.249 56.839-3.72 76.563-5.651 32.735-3.253 75.402-8.242 125.909-16.43l91.135 18.003-33.743-20.021 9.065-9.251c49.262 2.254 97.943 11.586 144.548 27.71 41.061-22.009 89.773-24.643 132.967-7.19 1.844-3.934 3.691-7.87 5.541-11.811 9.274 2.894 19.064 3.77 28.704 2.57 13.24-1.767 18.2-6.8 33.75-9.24 6.71-1.084 11.69-1.084 24.17-.52 29.28 1.247 45.54 3.047 63.46 4.11 25.31 1.507 20.43-.434 45.33 1.085 25.23 1.485 33.81 3.687 62.96 6.16 18.52 1.572 33.62 2.245 43.09 2.57v76.829h-1298.48867z" fill="#cdd8dd"/><path d="m1306.56 218.733c-20.24-1.077-41.06-1.858-62.45-2.342-24.61-.557-48.54-.676-71.78-.358l-6.69 1.29c.42.252.74.633.92 1.085 1.23 3.069-6.71 6.789-6.38 9.761.51 4.793 21.91 5.01 50.22 10.78 7.18 1.464 23.94 4.881 23.74 7.776-.09 1.367-3.96 2.234-7.24 2.744-3.34 1.117-6.52 2.628-9.49 4.501-2.7 1.726-5.14 3.83-7.25 6.247-6.15 6.605-30.65 10.563-68.66 3.254-13.94-2.679-25.28-6.03-40.62-10.564-11-3.253-20.03-6.225-26.26-8.362l-39.24 7.44-.1 9.761-16.43-2.06-23.605-1.02-46.072-18.437-88.001 5.564c-1.757 1.019-14.205 7.917-27.65 2.516-5.109-2.088-9.546-5.54-12.827-9.978l-10.843-.976c-8.326 5.496-17.765 9.081-27.639 10.498-17.75 2.375-31.38-4.197-39.219-6.507-6.658-1.996-13.749-3.612-86.462-5.032-25.839-.499-56.449-.911-90.995-.998-14.889 8.371-30.262 15.85-46.039 22.396-41.865 17.352-65.058 19.153-65.264 25.28-.206 6.128 21.371 15.184 121.366 29.077l725.71 2.798c1.76-32.073 3.51-64.118 5.25-96.134z" fill="#bcc9ce"/><path d="m-4.2515 97.0803c8.80452 1.3449 20.1246 3.0147 33.3314 4.5337 1.8325.206 24.3751 2.776 48.1538 4.121 40.8783 2.299 81.7453.77 110.2953.401 22-.271 53.26 1.085 115.781 3.905 96.438 4.338 103.475 6.908 146.988 7.158 42.582.22 85.143-1.952 127.481-6.508 3.252 10.343 9.9 19.286 18.867 25.379 5.69 3.736 12.13 6.18 18.867 7.158 3.654.173 8.175.412 13.369.715 0 0 9.911.564 19.799 1.237 11.364.77 38.287 2.928 74.145 6.507-31.37 2.762-62.9 3.197-94.334 1.301-26.175-1.561-38.569-3.893-63.085-5.845-53.065-4.241-92.089-1.085-110.598 0-44.457 2.494-159.295 3.156-461.63029-4.338.86744-15.235 1.72404-30.476 2.56979-45.7247z" fill="#dce2e5"/><path d="m677.231 138c4.338-1.367 10.67-3.189 18.434-4.837 4.217-.9 17.641-3.742 30.013-3.883 15.321-.162 15.343 3.959 36.519 7.169 20.754 3.134 26.934.109 58.379 3.97 4.597.574 8.327 1.084 10.648 1.453z" fill="#dce2e5"/><path d="m1103.01 152.11-20.6-.184c-3.62-1.981-7.09-4.236-10.36-6.746-6.58-5.076-7.83-7.69-8.37-9.251-.97-3.019-.97-6.265 0-9.284h2.67c9.76 5.841 19.21 12.191 28.3 19.023 2.87 2.133 5.65 4.28 8.36 6.442z" fill="#dce2e5"/><path d="m1082.4 151.926-73.23-.662c-.16-1.727-.12-3.466.11-5.184 1.09-8.054 6.14-15.025 13.45-18.567l40.96-.868c-.97 3.019-.97 6.265 0 9.284.54 1.561 1.79 4.175 8.37 9.251 3.27 2.509 6.73 4.764 10.34 6.746z" fill="#dfe5ea"/><path d="m835.539 135.169c1.106-2.718 2.219-5.44 3.34-8.166l19.962-4.208 8.848-5.694 8.002-1.92 2.526-1.572c6.067-1.773 11.796-4.548 16.948-8.21 1.649-1.184 3.231-2.458 4.738-3.818l3.763-2.169 1.442-1.6701 3.144-.3688c10.984 10.5529 19.518 17.9819 22.846 20.2589 1.28.879 2.538 1.692 2.538 1.692 3.556 2.234 6.191 3.319 18.867 11.301 4.521 2.852 8.219 5.249 10.702 6.887z" fill="#dfe5ea"/><path d="m867.081 171.285c8.391-5.072 17.618-8.609 27.249-10.445 8.576-1.54 15.006-1.084 31.694 1.161 32.68 4.436 33.125 6.149 48.728 7.364 15.885 1.226 17.533-.38 38.048.564 12.74.574 25.45 1.802 38.07 3.677z" fill="#dce2e5"/><path d="m379.342 185.969c7.221-1.202 14.217-3.503 20.742-6.822 8.187-4.067 11.689-7.472 16.428-10.216 12.014-6.963 19.669-2.483 35.001 1.139 12.972 3.034 26.302 4.253 39.609 3.622l87.438 11.138z" fill="#dce2e5"/><path clip-rule="evenodd" d="m102.476 143.824v14.576h-.781v-12.938h-.975l-.271 18.535h1.246v3.112l-9.4438 13.806-.0542 4.273h.7373l1.1819-1.713v3.698l-.9867 2.842v8.188l-7.1347 6.757v9.121l-1.5939 3.644-3.1662 4.175-3.5023 6.67 5.4215.26.694-1.442 2.2336-.087 2.6783 4.675.9867-.076 4.2071-14.316h9.0324l-.076 2.31-2.754 2.679v5.422l-1.9195 1.66-.3686 4.913 19.2791.455-.065-8.514 1.182-1.149v3.188h1.68v-26.484h-.911v-46.039h-.856v-6.952h-1.084l-.207 6.204-1.214-2.05v-9.761l.455-10.845-3.372 3.253-.141 4.035h-6.625zm-12.8813 69.866-.4554-7.06 6.5058-5.737zm13.0653-35.66h1.15l1.138-7.591-2.288 6.507zm5.715-22.981-1.258 1.432v-6.746h1.258zm3.22 46.744 2.288-1.746v-35.129h-2.288z" fill="#cdd8dd" fill-rule="evenodd"/><path d="m98.3014 281.713c-1.8939-4.339-3.7951-8.677-5.7035-13.015l-29.8616-16.637-10.2032-5.422-14.2261-11.182-4.0119-5.249-22.3908 5.813-13.31517 3.59-10.13823 9.132-20.0704 8.307c-5.3022 1.247-26.2726 6.442-26.2075 12.787.0759 7.147 26.7605 11.821 30.8483 12.515 21.29653 3.024 42.7899 4.446 64.299 4.252 20.4174-.181 40.7959-1.815 60.9811-4.891z" fill="#bcc9ce"/><path d="m147.54 298.469c1.446-3.883 2.892-7.773 4.337-11.67l22.597-14.912 7.72-4.924 10.767-9.989 3.047-4.718 19.008-1.995 12.155 8.351 14.096 7.06 11.58 5.965c.833 3.214 2.35 6.21 4.446 8.785 4.088 4.913 8.414 5.303 8.403 7.451 0 6.42-20.255 10.617-23.356 11.236-16.075 2.72-32.36 4.001-48.663 3.828-15.477-.188-30.911-1.683-46.137-4.468z" fill="#bcc9ce"/><path d="m143.431 201.326-6.365.282s.889.553-.64.619l3.99.412-2.428 2.472h-1.54v.217h.824l-1.182 1.15v2.397h-1.084v1.952l.368.922v4.934l-.444.716v4.425h.477v3.807l-.477.553v10.997h-.922v-10.997l-.477-.553v-3.807h.466v-4.425l-.444-.716v-4.934l.368-.922v-1.952h-1.084v-2.397l-1.225-1.15h.835v-.217h-1.54l-2.407-2.472 3.99-.412c-1.518-.066-.629-.619-.629-.619l-6.365-.282-2.765-.921 4.338-3.2 2.721-.542h4.609 4.608l2.721.542 4.338 3.2z" fill="#cdd8dd"/><path d="m78.2635 175.005-.412 1.041-2.0927-1.302.8349-.791z" fill="#dfe5ea"/><path d="m81.745 176.447-.1735 1.106-2.3313-.813.6506-.955z" fill="#dfe5ea"/><path d="m397.59 47.6361c-.119-1.0846-.249-2.1691-.369-3.3296-.48.104-.972.1478-1.464.1302-.424.0351-.849-.0635-1.214-.282-.365-.2833-.59-.7101-.618-1.1713v-.1302c.022-.3253.173-.6284.419-.8421.247-.2137.568-.3205.893-.2966 1.325.1218 2.642.3137 3.947.5748 1.468.298 2.916.6856 4.337 1.1604.369.1519.542.282.531.3905 0 .2819-1.42.3904-4.163.3145l2.006 3.5139 7.048.0868.249.3145c2.077-.1096 4.16.0031 6.213.3362.711.1176 1.397.356 2.028.7049.757.3611 1.391.9385 1.821 1.6594.185.3504.218.7616.091 1.1371-.127.3754-.403.682-.763.8476-.522.2465-1.062.4531-1.616.6182-1.26.3628-2.572.5094-3.881.4338l-10.681-.1627-1.908 2.3426-.64-.3253.271-1.0846-3.806 3.5248-.802-.6507 2.277-4.2081c-.226.0923-.479.0923-.705 0-.128-.0758-.251-.1591-.369-.2494h-.227c.005.1348-.033.2676-.109.3796-.314.4013-1.29.282-1.897-.141-.652-.6142-.984-1.4945-.9-2.386 0-.3904-.087-1.4099.412-1.6919.173-.0976.336-.0542.64-.2494.185-.1336.353-.2904.498-.4664.206-.1952.629-.3253 1.583 0 .072-.202.195-.3816.358-.5206.144-.1354.319-.2324.51-.2819z" fill="#dce2e5"/><g fill="#cdd8dd"><path clip-rule="evenodd" d="m1271.18 170.813c-.1 1.22-.21 2.44-.32 3.66.59 2.375 1.17 4.772 1.72 7.147h-12.4l.1-21.289.78-3.438h2.7v-4.469c-.24-.786-.49-1.576-.73-2.367-.18-.606-.37-1.212-.56-1.819v-2.982l3.42-4.512.35-.618h2.48l.26.878v14.435c.39 1.793.77 3.588 1.16 5.382v.002c.45 2.113.91 4.224 1.36 6.329-.1 1.221-.21 2.441-.32 3.661zm-10.03 1.589h.53v-10.076h-.53zm5.65-18.438h-.38v-11.713h.38zm.95 1.085h.34v-14.435h-.34z" fill-rule="evenodd"/><path clip-rule="evenodd" d="m1242.22 162.663h-2.82v-2.961l-1.09-1.952h-2.91v-3.796l-.88-.651v-1.475l-.71-.521v4.946h-2.73l-.7 1.594v7.126l12.86.889v-1.876zm-10.3.726h-.63v-5.043h.63zm3.75-4.804v1.269h2.7l-.63-1.269z" fill-rule="evenodd"/><path clip-rule="evenodd" d="m1244.7 138.456-.14 7.385-5.24 4.046v21.517l13.01-.163c.12-9.399.23-18.798.34-28.198l-.07-6.583 1.4-2.028v-3.069l-.64.433-.2.521-.26.174-.14-.272-.84.564v-8.177l-.24-.846v4.338h-.59l-1.39 2.733-2.44.12-2.44.13v1.334l.62.423v.433l-.64.293c-.01.261-.1 4.642-.1 4.892zm6.14 12.548h-.64v-13.188h.64z" fill-rule="evenodd"/><path d="m1266.41 119.346c-.05.376-1.95.571-5.73.586v.813h1.09v.315c-2.8.086-3.52 1.724-3.52 1.724v13.014c.82 2.278 1.63 4.555 2.42 6.833 0 7.953.03 15.867.08 23.741h-6.51c0-7.954 0-15.907 0-23.86l2.67-6.714v-13.014s-.71-1.638-3.51-1.724v-.315h1.08v-.813c-3.78 0-5.69-.206-5.74-.586 0-.195.39-.423 1.24-.694-.1-.135-.14-.31-.09-.474.04-.165.16-.298.32-.361l2.97-1.497c-.01-.068-.01-.138 0-.206-.02-.045-.02-.096 0-.141.12-.105.26-.196.4-.271 1.15-.681 2.45-1.055 3.78-1.085l.2-7.288.28 7.299c1.29.047 2.54.42 3.64 1.085.15.075.28.166.41.271.01.045.01.095 0 .141.01.068.01.138 0 .206l2.97 1.497c.15.063.27.196.32.36.04.165.01.34-.1.475.92.282 1.33.499 1.33.683z"/><path d="m1253.78 116.353c2.37-.998 5.05-.998 7.43 0z" opacity=".3"/><path d="m1251.6 118.229c.46-.531 1.13-.836 1.83-.836.71 0 1.38.305 1.84.836z" opacity=".2"/><path d="m1259.97 118.229c.48-.517 1.15-.818 1.86-.835.69.043 1.33.341 1.81.835z" opacity=".2"/><path d="m1255.78 118.229c.49-.517 1.17-.817 1.88-.835.68.046 1.32.343 1.8.835z" opacity=".2"/></g><path d="m934.568 62.0713 1.475-.8568 1.345-.4229 9.227-1.0846 10.084-1.4099.26.3037.195-.0651v-.2061l1.714-.1409 1.463.3904v-1.3665l.185-1.0846-.575-.488.152-.4989.444-.2928 8.013 2.7439.065.5422 3.947.9761v1.0846l-.325.347-.683-.141.054.564.293.1952v.3904h.705l.173.282v.8026l-.867.2928c-.593.2368-1.212.4007-1.844.488-.438.0602-.88.0856-1.323.076-.216 1.0845-.422 2.169-.639 3.1994l-.868.1193c-.379-1.5943-.748-3.1886-1.084-4.7829h-.965c-.521-.0415-1.043.0757-1.496.3362-.296.184-.554.4234-.759.705-.173.2281-.312.4802-.412.7483l-.987-.0651-.065-.2494h-.477v-.6616l-.304-.065v.488l-.249-.2386-.445-.1952-.184-.282h-.575c.072.248.052.5133-.054.7483-.09.1605-.216.2978-.369.4013-.357.2119-.802.2119-1.16 0-.119-.068-.225-.1561-.314-.2603h-7.59l-.315-.3036 7.287-.1844-.412-.4772-7.287.0976v-.5748h-.184l-.25.3687-.878-.065c-.033.1003-.08.1953-.141.2819-.251.247-.607.3562-.954.2929h-1.659l-.174.2386h-1.648c-.093.106-.207.191-.336.2494-.349.1708-.762.1419-1.084-.0759-.239-.1689-.399-.427-.445-.7158h-2.168c.049-.1067.049-.2295 0-.3362-.109-.2169-.445-.2061-.521-.2061-.26.0227-.497.1573-.65.3688z" fill="#dce2e5"/><path d="m740.11 37.6041-.987.8025-4.673-.065v.3362c-2.104-.1844-2.321.8242-2.321.8242l-7.416.7917-.89.3688h-.412v-.3037l-1.03-.2169v-.8243h-4.152l.477.4555h-4.685v-.6941h-4.825v-.3904l.499-.6833 1.865-.3253v-1.0846l-.835-.0867v-.3037l1.637-.0651.152-.3145h1.085l.347-.347h1.084l.108-.4339h.315l.065-1.1821.195-.3687v1.7244h.282l.108-.3688h.326v-.4013l.325-.3036h.217v1.1604l.77.3362v.8785l-.25.3688.38.6398h2.32v.3905h1.16v-.3905l4.186.1736.379.2169h.868l.271-.3905h.629l.141.3905h.683l.39-.5098h2.06l.228-.2711h2.353v.4013h3.361l.358.141z" fill="#dce2e5"/><path d="m740.11 37.0184v.5857h-2.83l-.358-.141h-3.362v-.4013h-2.342l-.227.2712h-2.06l-.391.5097h-.683l-.141-.3905h-.629l-.271.3905h-.867l-.38-.2169-4.185-.1736v.3905h-1.16v-.3905h-2.321l-.379-.6398.249-.3688-.032-.8785-.77-.3362v-1.1604h.141l.173.9218h3.47l.813.7375.943-.0434.044-.4988 3.058.0216 4.066.7918 5.996-.0543.195-.4121h.835v-.5423h.39l.022 1.269h.39v.5531z" fill="#dce2e5"/></g></svg>