<svg viewBox="0 0 16 17" fill="none" xmlns="http://www.w3.org/2000/svg">
<path fill-rule="evenodd" clip-rule="evenodd" d="M11.1666 1.83337C11.1666 1.55723 10.9428 1.33337 10.6666 1.33337C10.3905 1.33337 10.1666 1.55723 10.1666 1.83337V2.66663H5.83337V1.83337C5.83337 1.55723 5.60952 1.33337 5.33337 1.33337C5.05723 1.33337 4.83337 1.55723 4.83337 1.83337V2.66663H3.33333C2.32081 2.66663 1.5 3.48744 1.5 4.49996V7.16663V13.8333C1.5 14.8458 2.32081 15.6666 3.33333 15.6666H12.6667C13.6792 15.6666 14.5 14.8458 14.5 13.8333V7.16663V4.49996C14.5 3.48744 13.6792 2.66663 12.6667 2.66663H11.1666V1.83337ZM13.5 6.66663V4.49996C13.5 4.03972 13.1269 3.66663 12.6667 3.66663H11.1666V4.50004C11.1666 4.77618 10.9428 5.00004 10.6666 5.00004C10.3905 5.00004 10.1666 4.77618 10.1666 4.50004V3.66663H5.83337V4.50004C5.83337 4.77618 5.60952 5.00004 5.33337 5.00004C5.05723 5.00004 4.83337 4.77618 4.83337 4.50004V3.66663H3.33333C2.8731 3.66663 2.5 4.03972 2.5 4.49996V6.66663H13.5ZM2.5 7.66663H13.5V13.8333C13.5 14.2935 13.1269 14.6666 12.6667 14.6666H3.33333C2.8731 14.6666 2.5 14.2935 2.5 13.8333V7.66663Z" fill="white" fill-opacity="0.8"/>
</svg>
