<svg xmlns="http://www.w3.org/2000/svg" width="24" height="24" viewBox="0 0 24 24">
  <path fill="currentColor" fill-rule="evenodd" d="M7.314 23.889a.641.641 0 0 0 .36.111v-.001a.635.635 0 0 0 .448-.185l12.693-12.631a.63.63 0 0 0-.45-1.079h-6.074L18.407.887a.629.629 0 0 0-.22-.777.639.639 0 0 0-.81.075L4.686 12.816a.63.63 0 0 0 .45 1.079h6.074l-4.116 9.217a.629.629 0 0 0 .22.777Zm4.871-11.257H6.667l9.191-9.148-3.125 6.997a.634.634 0 0 0 .58.889h5.52L9.64 20.518l3.125-6.997a.633.633 0 0 0-.58-.89Z" />
</svg>
