<svg xmlns="http://www.w3.org/2000/svg" width="24" height="24" viewBox="0 0 24 24">
  <path fill="currentColor" d="M22.746 18.338c-1.161-.692-2.9-1.283-5.057-1.283-2.158 0-3.896.59-5.057 1.283v-12.5c.763-.647 2.503-1.56 5.057-1.56 2.553 0 4.293.912 5.057 1.559zM1.263 5.838c.764-.647 2.505-1.559 5.057-1.559 2.552 0 4.294.912 5.057 1.56v12.493c-1.161-.692-2.898-1.282-5.057-1.282-2.16 0-3.896.588-5.057 1.282zm22.554-.735C22.858 4.133 20.677 3 17.685 3c-2.592 0-4.577.852-5.684 1.71C10.893 3.853 8.908 3 6.316 3 3.326 3 1.144 4.133.184 5.103A.642.642 0 0 0 0 5.556V19.61c0 .258.154.492.39.59a.627.627 0 0 0 .689-.138c.635-.643 2.453-1.73 5.237-1.73 2.784 0 4.603 1.087 5.237 1.73.247.25.647.25.894 0 .635-.643 2.453-1.73 5.237-1.73 2.784 0 4.603 1.087 5.237 1.73a.625.625 0 0 0 .689.138.639.639 0 0 0 .39-.59V5.556a.647.647 0 0 0-.184-.453z"/>
</svg>
