<svg width="32" height="32" viewBox="0 0 32 32" xmlns="http://www.w3.org/2000/svg">
<path fill-rule="evenodd" d="M29.3684 30.4016H30.1842V30.4C30.6345 30.4 31 30.7584 31 31.2C31 31.6416 30.6345 32 30.1842 32H0.815789C0.365474 32 0 31.6416 0 31.2C0 30.7584 0.365474 30.4 0.815789 30.4H1.63158V7.19973C1.63158 5.96932 2.573 4.72771 3.77547 4.3741L18.5282 0.0332546C18.7746 -0.0387461 19.0422 0.00765435 19.2494 0.158056C19.4566 0.308458 19.5789 0.54686 19.5789 0.799663V3.42369L27.2621 5.93572C28.4433 6.32292 29.3684 7.58054 29.3684 8.80135V30.4016ZM27.7368 8.80135C27.7368 8.26534 27.2653 7.62374 26.7465 7.45413L19.5789 5.11171V30.4016H27.7368V8.80135ZM3.26316 7.20133C3.26316 6.67493 3.73142 6.05892 4.24537 5.90852L17.9474 1.87647V30.4016H3.26316V7.20133ZM8.15789 9.60136H6.52632V11.2014H8.15789V9.60136ZM11.4211 9.60136H9.78947V11.2014H11.4211V9.60136ZM22.8421 9.60136H24.4737V11.2014H22.8421V9.60136ZM22.8421 12.8014H24.4737V14.4014H22.8421V12.8014ZM24.4737 16.0014H22.8421V17.6014H24.4737V16.0014ZM22.8421 19.2015H24.4737V20.8015H22.8421V19.2015ZM24.4737 25.6015H22.8421V27.2015H24.4737V25.6015ZM22.8421 22.4015H24.4737V24.0015H22.8421V22.4015ZM9.78947 12.8014H11.4211V14.4014H9.78947V12.8014ZM11.4211 16.0014H9.78947V17.6014H11.4211V16.0014ZM9.78947 19.2015H11.4211V20.8015H9.78947V19.2015ZM11.4211 25.6015H9.78947V27.2015H11.4211V25.6015ZM9.78947 22.4015H11.4211V24.0015H9.78947V22.4015ZM6.52632 12.8014H8.15789V14.4014H6.52632V12.8014ZM8.15789 16.0014H6.52632V17.6014H8.15789V16.0014ZM6.52632 19.2015H8.15789V20.8015H6.52632V19.2015ZM8.15789 25.6015H6.52632V27.2015H8.15789V25.6015ZM6.52632 22.4015H8.15789V24.0015H6.52632V22.4015ZM14.6842 9.60136H13.0526V11.2014H14.6842V9.60136ZM13.0526 12.8014H14.6842V14.4014H13.0526V12.8014ZM14.6842 16.0014H13.0526V17.6014H14.6842V16.0014ZM13.0526 19.2015H14.6842V20.8015H13.0526V19.2015ZM14.6842 25.6015H13.0526V27.2015H14.6842V25.6015ZM13.0526 22.4015H14.6842V24.0015H13.0526V22.4015Z" fill="currentColor"/>
</svg>
