<svg width="32" height="32" viewBox="0 0 32 32" fill="none" xmlns="http://www.w3.org/2000/svg">
<path fill-rule="evenodd" d="M24.4 4.44444H27.9C29.0578 4.44444 30 5.41656 30 6.61111V26.8333C30 28.0279 29.0578 29 27.9 29H4.1C2.9422 29 2 28.0279 2 26.8333V6.61111C2 5.41656 2.9422 4.44444 4.1 4.44444H7.6V3.72222C7.6 3.32356 7.9136 3 8.3 3C8.6864 3 9 3.32356 9 3.72222V4.44444H23V3.72222C23 3.32356 23.3136 3 23.7 3C24.0864 3 24.4 3.32356 24.4 3.72222V4.44444ZM7.6 5.88889H4.1C3.7136 5.88889 3.4 6.21244 3.4 6.61111V10.2222H28.6V6.61111C28.6 6.21244 28.2864 5.88889 27.9 5.88889H24.4V8.05556C24.4 8.45422 24.0864 8.77778 23.7 8.77778C23.3136 8.77778 23 8.45422 23 8.05556V5.88889H9V8.05556C9 8.45422 8.6864 8.77778 8.3 8.77778C7.9136 8.77778 7.6 8.45422 7.6 8.05556V5.88889ZM27.9 27.5556H4.1C3.7136 27.5556 3.4 27.232 3.4 26.8333V11.6667H28.6V26.8333C28.6 27.232 28.2864 27.5556 27.9 27.5556ZM10.75 16H12.25C12.664 16 13 15.776 13 15.5C13 15.224 12.664 15 12.25 15H10.75C10.336 15 10 15.224 10 15.5C10 15.776 10.336 16 10.75 16ZM17.25 16H15.75C15.336 16 15 15.776 15 15.5C15 15.224 15.336 15 15.75 15H17.25C17.664 15 18 15.224 18 15.5C18 15.776 17.664 16 17.25 16ZM19.75 16H21.25C21.664 16 22 15.776 22 15.5C22 15.224 21.664 15 21.25 15H19.75C19.336 15 19 15.224 19 15.5C19 15.776 19.336 16 19.75 16ZM25.25 16H23.75C23.336 16 23 15.776 23 15.5C23 15.224 23.336 15 23.75 15H25.25C25.664 15 26 15.224 26 15.5C26 15.776 25.664 16 25.25 16ZM6.75 19H8.25C8.664 19 9 18.776 9 18.5C9 18.224 8.664 18 8.25 18H6.75C6.336 18 6 18.224 6 18.5C6 18.776 6.336 19 6.75 19ZM12.25 19H10.75C10.336 19 10 18.776 10 18.5C10 18.224 10.336 18 10.75 18H12.25C12.664 18 13 18.224 13 18.5C13 18.776 12.664 19 12.25 19ZM15.75 19H17.25C17.664 19 18 18.776 18 18.5C18 18.224 17.664 18 17.25 18H15.75C15.336 18 15 18.224 15 18.5C15 18.776 15.336 19 15.75 19ZM21.25 19H19.75C19.336 19 19 18.776 19 18.5C19 18.224 19.336 18 19.75 18H21.25C21.664 18 22 18.224 22 18.5C22 18.776 21.664 19 21.25 19ZM23.75 19H25.25C25.664 19 26 18.776 26 18.5C26 18.224 25.664 18 25.25 18H23.75C23.336 18 23 18.224 23 18.5C23 18.776 23.336 19 23.75 19ZM8.25 22H6.75C6.336 22 6 21.776 6 21.5C6 21.224 6.336 21 6.75 21H8.25C8.664 21 9 21.224 9 21.5C9 21.776 8.664 22 8.25 22ZM10.75 22H12.25C12.664 22 13 21.776 13 21.5C13 21.224 12.664 21 12.25 21H10.75C10.336 21 10 21.224 10 21.5C10 21.776 10.336 22 10.75 22ZM17.25 22H15.75C15.336 22 15 21.776 15 21.5C15 21.224 15.336 21 15.75 21H17.25C17.664 21 18 21.224 18 21.5C18 21.776 17.664 22 17.25 22ZM19.75 22H21.25C21.664 22 22 21.776 22 21.5C22 21.224 21.664 21 21.25 21H19.75C19.336 21 19 21.224 19 21.5C19 21.776 19.336 22 19.75 22ZM25.25 22H23.75C23.336 22 23 21.776 23 21.5C23 21.224 23.336 21 23.75 21H25.25C25.664 21 26 21.224 26 21.5C26 21.776 25.664 22 25.25 22ZM6.75 24H8.25C8.664 24 9 23.776 9 23.5C9 23.224 8.664 23 8.25 23H6.75C6.336 23 6 23.224 6 23.5C6 23.776 6.336 24 6.75 24ZM12.25 24H10.75C10.336 24 10 23.776 10 23.5C10 23.224 10.336 23 10.75 23H12.25C12.664 23 13 23.224 13 23.5C13 23.776 12.664 24 12.25 24ZM15.75 24H17.25C17.664 24 18 23.776 18 23.5C18 23.224 17.664 23 17.25 23H15.75C15.336 23 15 23.224 15 23.5C15 23.776 15.336 24 15.75 24ZM21.25 24H19.75C19.336 24 19 23.776 19 23.5C19 23.224 19.336 23 19.75 23H21.25C21.664 23 22 23.224 22 23.5C22 23.776 21.664 24 21.25 24ZM23.75 24H25.25C25.664 24 26 23.776 26 23.5C26 23.224 25.664 23 25.25 23H23.75C23.336 23 23 23.224 23 23.5C23 23.776 23.336 24 23.75 24Z" fill="currentColor"/>
</svg>
