<svg xmlns="http://www.w3.org/2000/svg" width="32" height="32" viewBox="0 0 32 32">
  <path fill="currentColor" d="M29.6 5C30.923 5 32 6.058 32 7.357v17.286c0 1.3-1.077 2.357-2.4 2.357H2.4C1.077 27 0 25.942 0 24.643V7.357C0 6.057 1.077 5 2.4 5h27.2Zm0 1.571H2.4c-.442 0-.8.352-.8.786v17.286c0 .434.358.786.8.786h27.2c.442 0 .8-.352.8-.786V7.357a.793.793 0 0 0-.8-.786Zm-20 11c2.434 0 3.614 1.056 4.18 1.941a4.035 4.035 0 0 1 .622 1.988c0 .4-.306.731-.7.78l-.1.006H5.6a.793.793 0 0 1-.8-.786c0-.104.018-1.039.62-1.988.564-.885 1.746-1.94 4.18-1.94Zm16.8 3.143c.442 0 .8.352.8.786a.793.793 0 0 1-.8.786h-8a.793.793 0 0 1-.8-.786c0-.434.358-.786.8-.786h8ZM9.6 19.143c-1.336 0-2.274.388-2.789 1.152a2.385 2.385 0 0 0-.224.42h6.026a2.442 2.442 0 0 0-.224-.42c-.515-.766-1.453-1.152-2.789-1.152Zm15.2-1.572c.442 0 .8.352.8.786a.793.793 0 0 1-.8.786h-6.4a.793.793 0 0 1-.8-.786c0-.434.358-.786.8-.786h6.4Zm0-3.142c.442 0 .8.352.8.785a.793.793 0 0 1-.8.786h-6.4a.793.793 0 0 1-.8-.786c0-.433.358-.785.8-.785h6.4ZM9.6 9.714c1.765 0 3.2 1.41 3.2 3.143C12.8 14.59 11.365 16 9.6 16c-1.765 0-3.2-1.41-3.2-3.143 0-1.733 1.435-3.143 3.2-3.143Zm0 1.572c-.882 0-1.6.705-1.6 1.571s.718 1.572 1.6 1.572c.882 0 1.6-.706 1.6-1.572 0-.866-.718-1.571-1.6-1.571Zm16.8 0c.442 0 .8.352.8.785a.793.793 0 0 1-.8.786h-8a.793.793 0 0 1-.8-.786c0-.433.358-.785.8-.785h8Z"/>
</svg>
