<svg xmlns="http://www.w3.org/2000/svg" width="24" height="24" viewBox="0 0 24 24"><path d="M16.834 7.348c.15.275.06.626-.199.785l-5.633 3.445-.018.01c-.003.003-.006.004-.01.006a.417.417 0 0 1-.058.028.347.347 0 0 1-.056.018l-.004.001a.556.556 0 0 1-.122.015h-.038l-.018-.003-.02-.003-.02-.003-.015-.003c-.006-.003-.014-.004-.022-.006l-.014-.004-.021-.006-.016-.006-.02-.008-.034-.016-.006-.004c-.01-.004-.02-.01-.03-.016l-.007-.004a.243.243 0 0 1-.028-.019l-.004-.002-4.44-3.294a.596.596 0 0 1-.133-.8.523.523 0 0 1 .754-.14l4.158 3.083 5.333-3.263a.526.526 0 0 1 .74.21zM21.5 11c0 2.806-1.09 5.443-3.075 7.426A10.434 10.434 0 0 1 11 21.5a10.427 10.427 0 0 1-7.425-3.075A10.437 10.437 0 0 1 .5 10.999c0-2.804 1.092-5.441 3.075-7.424A10.434 10.434 0 0 1 11 .5c2.805 0 5.442 1.092 7.425 3.075a10.43 10.43 0 0 1 3.075 7.424zm-1.105.002c0-5.181-4.215-9.396-9.395-9.396S1.605 5.82 1.605 11.001c0 5.18 4.215 9.395 9.395 9.395S20.395 16.18 20.395 11z" fill="currentColor" /></svg>
