<svg xmlns="http://www.w3.org/2000/svg" width="32" height="32" viewBox="0 0 32 32">
  <path fill="currentColor" fill-rule="evenodd" d="M16 30.4c-5.48 0-10.256-3.078-12.688-7.595.42-.799 1.197-2.565.834-4.11.025-.156.29-.529.448-.756.433-.616.972-1.38.572-2.192-.28-.57-1.03-.953-2.505-1.286-.343-.077-.675-.14-.959-.189.858-7.128 6.941-12.67 14.296-12.67 2.525 0 4.9.654 6.964 1.8a3.253 3.253 0 0 0-1.344-.258 9.17 9.17 0 0 0-.6.024c-.19.011-.388.022-.583.022-.454 0-1.02-.054-1.779-.459-1.158-.616-2.026-.88-2.9-.88-1.08 0-2.178.42-3.668 1.402a6.826 6.826 0 0 0-2.731 3.66c-.463 1.474-.413 2.985.139 4.247.651 1.491 1.51 2.157 2.787 2.157.315 0 .623-.037.947-.075a8.535 8.535 0 0 1 1.016-.079c.434 0 .816.061 1.202.189.702.235 1.22 1.022 1.586 2.406.364 1.384.502 3.144.625 4.698.103 1.296.199 2.518.411 3.442.13.56.296.985.512 1.3.322.47.783.73 1.298.73 1.414 0 2.544-.456 3.358-1.355.677-.747 1.023-1.67 1.301-2.413.163-.437.333-.89.498-1.075 1.819-2.043 1.632-3.727 1.494-4.957-.1-.902-.102-1.222.263-1.555.339-.309.648-.586.92-.829.58-.518 1-.893 1.294-1.213.202-.22.675-.737.544-1.384a.05.05 0 0 1-.003-.017c.549 1.521.848 3.161.848 4.87 0 7.94-6.46 14.4-14.4 14.4H16ZM1.602 15.877c.172.03.358.067.55.107.9.192 1.32.365 1.504.462a5.725 5.725 0 0 1-.37.568c-.395.562-.888 1.261-.7 2.03.126.522.019 1.158-.165 1.746a14.335 14.335 0 0 1-.821-4.793l.002-.123v.003Zm23.344.429c.121 1.083.246 2.204-1.1 3.715-.363.408-.576.976-.801 1.577-.522 1.394-1.015 2.71-3.114 2.73-.059-.07-.225-.336-.374-1.173-.136-.771-.215-1.77-.3-2.824-.127-1.619-.273-3.456-.673-4.979-.512-1.947-1.371-3.098-2.626-3.518a5.367 5.367 0 0 0-1.708-.27c-.445 0-.848.047-1.204.089-.276.032-.539.064-.76.064-.374 0-.798 0-1.321-1.197-.75-1.72-.197-4.477 2.006-5.931 1.208-.797 2.042-1.138 2.787-1.138.596 0 1.237.207 2.148.693 1.075.573 1.918.646 2.532.646.244 0 .464-.012.677-.024.18-.012.347-.022.504-.022.352 0 .637.046.971.274.616.42.936 1.35 1.274 2.332.512 1.492 1.093 3.181 2.936 3.808.248.085.674.23.976.356-.26.268-.696.657-1.123 1.038-.275.246-.587.525-.933.84-.998.91-.88 1.976-.774 2.915v-.001Zm4.49-5.488c-.313-.562-1.097-.83-2.12-1.178-1.1-.374-1.489-1.504-1.938-2.813-.39-1.136-.794-2.309-1.752-3.038a14.49 14.49 0 0 1 5.81 7.029Zm-2.122-6.132A15.894 15.894 0 0 0 16 0 15.894 15.894 0 0 0 4.686 4.686 15.894 15.894 0 0 0 0 16c0 4.274 1.664 8.291 4.686 11.314A15.894 15.894 0 0 0 16 32c4.274 0 8.291-1.664 11.314-4.686A15.894 15.894 0 0 0 32 16c0-4.274-1.664-8.291-4.686-11.314Z"/>
</svg>
