<svg xmlns="http://www.w3.org/2000/svg" width="32" height="32" viewBox="0 0 32 32">
  <path fill="currentColor" fill-rule="evenodd" d="M17.417 15.601c1.658 1.593 3.536 3.396 7.168 3.396l.004.003c3.636 0 5.514-1.805 7.17-3.398a.782.782 0 0 0 .241-.56V3.958a.79.79 0 0 0-.509-.731.846.846 0 0 0-.898.17c-1.637 1.576-3.053 2.936-6.004 2.936-2.951 0-4.366-1.36-6.005-2.935l-.005-.005C16.922 1.802 15.046 0 11.413 0 7.777 0 5.9 1.805 4.243 3.398a.77.77 0 0 0 0 1.12.848.848 0 0 0 1.164 0c1.637-1.576 3.053-2.936 6.005-2.936 2.95 0 4.366 1.36 6.004 2.935l.003.003c1.658 1.592 3.535 3.395 7.168 3.395 2.663 0 4.383-.969 5.764-2.114v8.911c-1.54 1.474-2.957 2.703-5.764 2.703-2.951 0-4.366-1.36-6.005-2.935l-.004-.005c-1.658-1.592-3.533-3.393-7.166-3.393-3.637 0-5.514 1.805-7.171 3.398a.77.77 0 0 0 0 1.119.848.848 0 0 0 1.164 0c1.637-1.575 3.054-2.935 6.005-2.935s4.366 1.36 6.005 2.935l.002.002ZM1 31.194c0 .445.448.806 1 .806s1-.36 1-.806V3.806C3 3.36 2.552 3 2 3s-1 .36-1 .806v27.388Z" />
</svg>
