<svg xmlns="http://www.w3.org/2000/svg" width="24" height="24" viewBox="0 0 24 24">
  <path fill="currentColor" d="M.6 14.249a.575.575 0 0 1-.402-.166.676.676 0 0 1-.042-.91L10.75.605C11.08.215 11.523 0 12 0s.92.215 1.25.605l10.595 12.568a.678.678 0 0 1-.042.91.572.572 0 0 1-.847-.046L12.362 1.47a.472.472 0 0 0-.36-.182.472.472 0 0 0-.36.182L1.047 14.037a.583.583 0 0 1-.445.213zm17.882 9.001H5.518c-.975 0-1.768-.808-1.768-1.8v-9.6c0-.331.264-.6.59-.6.325 0 .589.269.589.6v9.6c0 .331.264.6.589.6h12.964c.325 0 .59-.269.59-.6v-9.6c0-.331.263-.6.589-.6.325 0 .589.269.589.6v9.6c0 .992-.793 1.8-1.768 1.8z"/>
</svg>
