<svg xmlns="http://www.w3.org/2000/svg" width="24" height="24" viewBox="0 0 24 24">
  <path fill="currentColor" d="M20.336 20.5h-3.678v-3.75h3.678zM8.1 20.5H4.42v-3.75H8.1zm2.44-16.25h3.678V8h-3.679zm12.848 7.5H12.987v-2.5h1.835c.338 0 .612-.28.612-.625v-5A.619.619 0 0 0 14.822 3H9.928a.619.619 0 0 0-.612.625v5c0 .345.274.625.612.625h1.835v2.5H1.362a.619.619 0 0 0-.612.625c0 .345.274.625.612.625h4.283v2.5H3.809a.619.619 0 0 0-.612.625v5c0 .345.274.625.612.625h4.895c.338 0 .612-.28.612-.625v-5a.619.619 0 0 0-.612-.625H6.868V13h11.014v2.5h-1.836a.619.619 0 0 0-.612.625v5c0 .345.274.625.612.625h4.895c.338 0 .612-.28.612-.625v-5a.619.619 0 0 0-.612-.625h-1.836V13h4.283c.338 0 .612-.28.612-.625a.619.619 0 0 0-.612-.625z"/>
</svg>
