<svg xmlns="http://www.w3.org/2000/svg" width="24" height="24" viewBox="0 0 24 24">
  <path fill="currentColor" fill-rule="evenodd" d="M1.875 8.25A1.877 1.877 0 0 1 0 6.375C0 5.341.841 4.5 1.875 4.5s1.875.841 1.875 1.875A1.877 1.877 0 0 1 1.875 8.25Zm0-2.5a.625.625 0 1 0 0 1.25.625.625 0 0 0 0-1.25Zm21.516 1H5.109c-.336 0-.609-.336-.609-.75s.273-.75.61-.75h18.28c.337 0 .61.336.61.75s-.273.75-.61.75ZM5.109 13.5h18.282c.336 0 .609-.336.609-.75s-.273-.75-.61-.75H5.11c-.337 0-.61.336-.61.75s.273.75.61.75Zm0 6h18.282c.336 0 .609-.336.609-.75s-.273-.75-.61-.75H5.11c-.337 0-.61.336-.61.75s.273.75.61.75ZM0 12.375c0 1.034.841 1.875 1.875 1.875a1.877 1.877 0 0 0 1.875-1.875A1.877 1.877 0 0 0 1.875 10.5 1.877 1.877 0 0 0 0 12.375Zm1.25 0a.625.625 0 1 1 1.25 0 .625.625 0 0 1-1.25 0Zm.625 7.875A1.877 1.877 0 0 1 0 18.375C0 17.341.841 16.5 1.875 16.5s1.875.841 1.875 1.875a1.877 1.877 0 0 1-1.875 1.875Zm0-2.5a.625.625 0 1 0 0 1.25.625.625 0 0 0 0-1.25Z" />
</svg>
