<svg xmlns="http://www.w3.org/2000/svg" width="32" height="32" viewBox="0 0 32 32">
  <path fill="currentColor" fill-rule="evenodd" d="M2 29.474A2.532 2.532 0 0 0 4.531 32H26.47A2.532 2.532 0 0 0 29 29.474V2.526A2.532 2.532 0 0 0 26.469 0H4.53A2.532 2.532 0 0 0 2 2.526v26.948ZM3.688 2.526c0-.465.377-.842.843-.842H26.47c.465 0 .843.377.843.842v26.948a.843.843 0 0 1-.843.842H4.53a.843.843 0 0 1-.843-.842V2.526Zm9.28 4.21H7.907a.843.843 0 1 1 0-1.683h5.063a.843.843 0 1 1 0 1.684Zm-5.062 3.37h5.063a.843.843 0 1 0 0-1.685H7.906a.843.843 0 1 0 0 1.684Zm5.063 3.368H7.906a.843.843 0 1 1 0-1.684h5.063a.843.843 0 1 1 0 1.684Zm-5.063 3.368h5.063a.843.843 0 1 0 0-1.684H7.906a.843.843 0 1 0 0 1.684Zm16.032 2.526a.843.843 0 0 1-.844.843H7.906a.843.843 0 1 1 0-1.685h15.188c.465 0 .843.378.843.842ZM7.063 22.737c0 .465.378.842.843.842h15.188a.843.843 0 1 0 0-1.684H7.906a.843.843 0 0 0-.843.842Zm16.875 3.368a.843.843 0 0 1-.844.842H7.906a.843.843 0 1 1 0-1.684h15.188c.465 0 .843.377.843.842Zm-.844-9.263h-6.75A.843.843 0 0 1 15.5 16V5.895c0-.465.378-.842.844-.842h6.75c.465 0 .843.377.843.842V16a.843.843 0 0 1-.843.842Zm-5.907-1.684h5.063V6.737h-5.063v8.42Z" />
</svg>
