<svg xmlns="http://www.w3.org/2000/svg" width="24" height="24" viewBox="0 0 24 24">
  <path fill="currentColor" d="M6.179 15c.696 0 1.346.299 1.935.886.93.93.963 1.856.827 2.469-.426 1.925-3.146 3.811-8.084 5.607A.65.65 0 0 1 .639 24v-.001a.637.637 0 0 1-.6-.856C2.004 17.74 4.071 15 6.179 15ZM24 0v.592c0 3.073-.521 5.812-1.55 8.14-.847 1.92-2.036 3.564-3.535 4.886a13.22 13.22 0 0 1-.847.687c-.069 1.021-.474 2.064-1.208 3.108-.62.882-1.48 1.768-2.555 2.635-1.805 1.456-3.585 2.351-3.66 2.39a.593.593 0 0 1-.683-.949c.005-.005.56-.57 1.108-1.536.45-.796.98-2.023 1.073-3.507-.96-.375-2.11-1.45-2.625-1.964-.515-.515-1.589-1.664-1.964-2.625-1.484.094-2.711.623-3.507 1.073-.965.546-1.531 1.103-1.537 1.109a.594.594 0 0 1-.765.059.592.592 0 0 1-.183-.744c.038-.074.933-1.854 2.39-3.659.867-1.074 1.753-1.934 2.635-2.554 1.042-.734 2.087-1.14 3.108-1.208.212-.284.44-.567.687-.847 1.323-1.499 2.966-2.688 4.886-3.536C17.598.522 20.336.001 23.409.001L23.408 0H24ZM6.18 16.276c-.632 0-1.376.554-2.152 1.602-.762 1.03-1.528 2.5-2.283 4.376 1.705-.685 3.075-1.381 4.085-2.075 1.363-.936 1.767-1.66 1.865-2.102.098-.441-.06-.864-.484-1.288-.345-.345-.682-.512-1.032-.512l.001-.001Zm10.512-1.068c-1.346.767-2.583 1.165-3.366 1.308a9.19 9.19 0 0 1-.94 3.487V20l.225-.156c1.517-1.075 3.292-2.628 3.985-4.374Zm6.119-14.014c-4.959.12-8.94 1.731-11.54 4.677-2.173 2.463-2.665 5.014-2.665 5.381 0 .003.005.245.466.9.32.455.778.987 1.285 1.494a11.99 11.99 0 0 0 1.494 1.285c.654.46.897.465.9.465.366 0 2.917-.492 5.38-2.665 2.95-2.599 4.56-6.579 4.68-11.537ZM8.794 7.309c-1.945.638-3.67 2.67-4.8 4.307a9.22 9.22 0 0 1 3.49-.94c.143-.784.541-2.02 1.31-3.367ZM16.125 6a2.629 2.629 0 0 1 2.625 2.625 2.629 2.629 0 0 1-2.625 2.625A2.629 2.629 0 0 1 13.5 8.625 2.629 2.629 0 0 1 16.125 6Zm0 1.05c-.868 0-1.575.707-1.575 1.575s.707 1.575 1.575 1.575S17.7 9.493 17.7 8.625s-.707-1.575-1.575-1.575Z"/>
</svg>
