<svg xmlns="http://www.w3.org/2000/svg" width="18" height="20" viewBox="0 0 18 20">
  <path fill="currentColor" fill-rule="evenodd" d="M16.105 1H1.895c-.523 0-.948.448-.948 1v2c0 .552.425 1 .948 1h14.21c.523 0 .948-.448.948-1V2c0-.552-.425-1-.948-1ZM1.895 0C.848 0 0 .895 0 2v2c0 1.105.848 2 1.895 2h14.21C17.152 6 18 5.105 18 4V2c0-1.105-.848-2-1.895-2H1.895Z"/>
  <path fill="currentColor" fill-rule="evenodd" d="M16 3a1 1 0 0 1-1 1h-2a1 1 0 1 1 0-2h2a1 1 0 0 1 1 1Zm0 14a1 1 0 0 0-1-1h-2a1 1 0 1 0 0 2h2a1 1 0 0 0 1-1Z"/>
  <path fill="currentColor" fill-rule="evenodd" d="M16.105 19H1.895c-.523 0-.948-.448-.948-1v-2c0-.552.425-1 .948-1h14.21c.523 0 .948.448.948 1v2c0 .552-.425 1-.948 1Zm-14.21 1C.848 20 0 19.105 0 18v-2c0-1.105.848-2 1.895-2h14.21c1.047 0 1.895.895 1.895 2v2c0 1.105-.848 2-1.895 2H1.895Z"/>
  <path fill="currentColor" fill-rule="evenodd" d="M16 17a1 1 0 0 0-1-1h-2a1 1 0 1 0 0 2h2a1 1 0 0 0 1-1Z"/>
  <path fill="currentColor" d="M11 17a1 1 0 1 0-2 0 1 1 0 0 0 2 0Zm-3 0a1 1 0 1 0-2 0 1 1 0 0 0 2 0Z"/>
  <path fill="currentColor" fill-rule="evenodd" d="M16.105 8H1.895c-.523 0-.948.448-.948 1v2c0 .552.425 1 .948 1h14.21c.523 0 .948-.448.948-1V9c0-.552-.425-1-.948-1ZM1.895 7C.848 7 0 7.895 0 9v2c0 1.105.848 2 1.895 2h14.21C17.152 13 18 12.105 18 11V9c0-1.105-.848-2-1.895-2H1.895Z"/>
  <path fill="currentColor" fill-rule="evenodd" d="M16 10a1 1 0 0 1-1 1h-2a1 1 0 1 1 0-2h2a1 1 0 0 1 1 1Z"/>
  <path fill="currentColor" d="M11 10a1 1 0 1 1-2 0 1 1 0 0 1 2 0Zm0-7a1 1 0 1 1-2 0 1 1 0 0 1 2 0Zm-3 7a1 1 0 1 1-2 0 1 1 0 0 1 2 0Zm0-7a1 1 0 1 1-2 0 1 1 0 0 1 2 0Z"/>
  <path fill="currentColor" fill-rule="evenodd" d="M9 8V6h1v2H9Zm0 6v-2h1v2H9Z"/>
</svg>
