<svg xmlns="http://www.w3.org/2000/svg" width="24" height="24" viewBox="0 0 24 24">
  <path fill="currentColor" d="M9.425 8.575 2.049 1.2h4.552a.6.6 0 0 0 0-1.2h-6a.6.6 0 0 0-.6.6v6a.6.6 0 0 0 1.2 0V2.048l7.375 7.376a.603.603 0 0 0 .85 0 .6.6 0 0 0 0-.849h-.001ZM23.4 0h-6a.6.6 0 0 0 0 1.2h4.552l-7.375 7.375a.6.6 0 0 0 .847.849l7.377-7.376V6.6a.6.6 0 0 0 1.2 0v-6a.6.6 0 0 0-.6-.6ZM9.425 14.576a.6.6 0 0 0-.849 0l-7.375 7.376V17.4a.6.6 0 0 0-1.2 0v6a.6.6 0 0 0 .6.6h6a.6.6 0 0 0 0-1.2H2.049l7.376-7.376a.6.6 0 0 0 0-.849v.001ZM23.4 16.8a.6.6 0 0 0-.6.6v4.552l-7.377-7.376a.6.6 0 0 0-.848.849L21.95 22.8H17.4a.6.6 0 0 0 0 1.2h6a.6.6 0 0 0 .6-.6v-6a.6.6 0 0 0-.6-.6Z"/>
</svg>
