<svg xmlns="http://www.w3.org/2000/svg" width="32" height="32" viewBox="0 0 32 32">
  <path fill="currentColor" d="m11.435 22.763-5.182-4.876a.78.78 0 0 1 0-1.149.903.903 0 0 1 1.221 0l4.571 4.3 11.481-10.8a.903.903 0 0 1 1.221 0 .78.78 0 0 1 0 1.149L12.655 22.763a.889.889 0 0 1-.61.237.896.896 0 0 1-.61-.237zM16 32a15.9 15.9 0 0 1-11.315-4.685A15.888 15.888 0 0 1 0 16.002 15.9 15.9 0 0 1 4.685 4.687 15.891 15.891 0 0 1 16 0c4.275 0 8.291 1.664 11.315 4.687A15.892 15.892 0 0 1 32 16.002c0 4.274-1.664 8.291-4.685 11.313A15.896 15.896 0 0 1 16 32zm0-30.316C8.106 1.684 1.684 8.106 1.684 16c0 7.894 6.422 14.316 14.316 14.316 7.894 0 14.316-6.422 14.316-14.316 0-7.894-6.422-14.316-14.316-14.316z"/>
</svg>
