<svg width="27" height="27" viewBox="0 0 27 27" fill="none" xmlns="http://www.w3.org/2000/svg">
<g clip-path="url(#clip0_9186_24917)">
<path d="M25.5094 12.6315C24.8763 11.5031 24.0209 11.2418 23.1252 11.0546C22.6299 10.9506 21.8174 10.9714 20.9568 10.9935C20.4056 11.0078 19.5775 11.0286 19.3539 10.9727C19.2577 10.922 19.0172 10.7647 18.9132 10.4124C18.791 9.99767 18.8183 9.22027 19.6464 7.86566C19.922 7.41456 20.0884 6.64106 20.091 5.79996C20.0936 4.86005 19.8908 3.97865 19.5216 3.32085C19.0003 2.39135 18.1774 1.90125 17.1413 1.90125C16.893 1.90125 16.6668 2.04295 16.5576 2.26525C16.0558 3.29095 15.0184 5.53866 14.0148 7.71356C13.1282 9.63627 12.2896 11.4524 12.0101 12.0114C11.9503 12.1297 11.8983 12.2402 11.8476 12.3468C11.5967 12.872 11.4732 13.1112 11.1716 13.2737C10.8193 13.4648 10.1953 13.5675 9.22684 13.5948C8.95644 12.8421 8.23624 12.3013 7.39123 12.3013H2.19122C1.11611 12.3013 0.241211 13.1762 0.241211 14.2513V24.6513C0.241211 25.7264 1.11611 26.6013 2.19122 26.6013H7.39123C8.23494 26.6013 8.95644 26.0618 9.22684 25.3091C9.98084 25.3325 11.3848 25.4157 12.4053 25.7199C14.4061 26.3179 16.3249 26.5961 18.4413 26.5961H18.4621C18.4686 26.5961 18.4751 26.5961 18.4829 26.5961C20.1196 26.5961 21.3039 26.5948 22.275 26.3296C23.3423 26.0384 24.1067 25.4495 24.8334 24.3601C25.2754 23.6984 26.2426 21.2154 26.2426 18.15C26.2426 15.6137 26.2426 13.938 25.5094 12.6315V12.6315ZM7.39253 25.3H2.19252C1.83372 25.3 1.54252 25.0088 1.54252 24.65V14.25C1.54252 13.8912 1.83372 13.6 2.19252 13.6H7.39253C7.75133 13.6 8.04254 13.8912 8.04254 14.25V24.65C8.04254 25.0088 7.75133 25.3 7.39253 25.3ZM23.7518 23.6399C22.6494 25.2922 21.6822 25.2961 18.4855 25.2961C18.4777 25.2961 18.4699 25.2961 18.4634 25.2961H18.4426C16.4289 25.2961 14.6817 25.0426 12.7785 24.4745C11.6487 24.1365 10.1784 24.039 9.34254 24.0104V14.8896C10.5073 14.8519 11.2574 14.7037 11.7917 14.4151C12.4782 14.0433 12.7421 13.4908 13.0216 12.9045C13.0697 12.8031 13.1204 12.6978 13.1737 12.5899C13.4623 12.0127 14.3047 10.1875 15.1965 8.25567C16.0389 6.43176 16.9788 4.39205 17.5287 3.24285C17.8927 3.33385 18.1709 3.56525 18.388 3.95395C18.6454 4.41415 18.7923 5.08496 18.791 5.79476C18.7897 6.43826 18.6623 6.98166 18.5375 7.18576C17.6717 8.60017 17.3792 9.81047 17.6665 10.7803C17.9239 11.6487 18.5531 12.0296 18.8118 12.1531C19.1602 12.3195 19.714 12.3234 20.9906 12.2909C21.6692 12.274 22.5116 12.2519 22.86 12.3247C23.6998 12.5002 24.0365 12.6614 24.3758 13.2659C24.9426 14.276 24.9426 15.8165 24.9426 18.1474C24.9426 20.9385 24.0573 23.1784 23.7518 23.6373V23.6399Z" fill="#512FC9"/>
</g>
<defs>
<clipPath id="clip0_9186_24917">
<rect width="26.0001" height="26.0001" fill="currentColor" transform="translate(0.242676 0.599976)"/>
</clipPath>
</defs>
</svg>
