<svg xmlns="http://www.w3.org/2000/svg" width="32" height="28" viewBox="0 0 32 28">
  <path fill="currentColor" d="M16 24c-.552 0-1-.336-1-.75v-1.5c0-.414.448-.75 1-.75s1 .336 1 .75v1.5c0 .414-.448.75-1 .75zm0-4c-.552 0-1-.373-1-.833v-8.334c0-.46.448-.833 1-.833s1 .373 1 .833v8.334c0 .46-.448.833-1 .833zm15.158 8H.843a.845.845 0 0 1-.728-.408.808.808 0 0 1-.007-.82L15.266.42c.15-.259.43-.42.734-.42.305 0 .585.16.735.42l15.157 26.351a.812.812 0 0 1-.007.82.843.843 0 0 1-.727.409zM2.283 26.353h27.435L16 2.505z"/>
</svg>
