<svg fill="none" height="159" viewBox="0 0 184 159" width="184" xmlns="http://www.w3.org/2000/svg"><path d="m184 11.6464v121.2366c0 6.746-5.724 12.086-12.479 11.524l-74.032-5.715c-8.7261-.656-17.4523 1.218-25.0525 5.528l-25.6155 14.428c-2.2519 1.312-4.6915-1.312-3.284-3.466l12.7608-19.676 11.9164-18.269c1.3136-1.968 3.7532-2.905 6.0051-2.155 18.6721 5.996 39.7837-.937 50.9497-18.0828 13.417-20.6121 7.6-48.1574-13.043-61.5552-20.6421-13.3979-48.228-7.589-61.6456 13.0231-11.2596 17.1455-9.0077 39.2567 4.0346 53.8729 1.5951 1.78 1.7828 4.403.4692 6.371l-15.1066 23.141c-.9383 1.406-2.4396 2.155-4.1285 2.062l-27.58592-2.155c-4.59765-.375-8.16318-4.216-8.16318-8.807v-101.468c0-4.5909 3.56553-8.4323 8.16318-8.807l163.35782-12.6483704c6.662-.4684566 12.479 4.8719504 12.479 11.6177704zm-96.2693 30.637c-16.7955 0-30.4008 13.5853-30.4008 30.3561 0 8.1511 3.1902 15.6464 8.5385 21.0805 3.1902 3.3729 7.1311 5.9026 11.6349 7.495 3.1902 1.125 6.7557 1.78 10.3213 1.78 16.7954 0 30.4944-13.5848 30.4944-30.4492-.094-16.6771-13.699-30.2624-30.5883-30.2624z" fill="#c7c7c7"/></svg>